<svg width="801" height="840" xmlns="http://www.w3.org/2000/svg" viewBox="100.9 34.78 801.46 839.74">
  <defs>
    <style>
      .cls-1, .cls-2 {
        fill: #3c2116;
      }

      .cls-2 {
      }
    </style>
  </defs>
  <g>
    <path class="cls-2" transform="translate(308.62 134.96) rotate(-23.3)" d="M0.37 0L19.84-52.77L30.25-52.77L49.65 0L39.09 0L34.19-13.15L15.76-13.15L10.93 0L0.37 0ZM17.47-20.36L32.33-20.36L25.05-42.14L17.47-20.36Z"/>
    <path class="cls-2" transform="translate(352.89 115.91) rotate(-16.9)" d="M41.47-47.27L36.94-38.94Q36.42-39.46 35.04-40.36Q33.67-41.25 31.70-42.07Q29.73-42.88 27.42-43.51Q25.12-44.15 22.74-44.15L22.74-44.15Q18.58-44.15 16.46-42.59Q14.34-41.02 14.34-38.20L14.34-38.20Q14.34-36.05 15.68-34.78Q17.02-33.52 19.69-32.63Q22.37-31.73 26.38-30.69L26.38-30.69Q31.59-29.43 35.41-27.61Q39.24-25.79 41.28-22.85Q43.33-19.92 43.33-15.09L43.33-15.09Q43.33-10.85 41.77-7.84Q40.21-4.83 37.46-2.97Q34.71-1.11 31.21-0.26Q27.72 0.59 23.78 0.59L23.78 0.59Q19.84 0.59 15.90-0.22Q11.97-1.04 8.32-2.56Q4.68-4.09 1.64-6.24L1.64-6.24L6.17-15.09Q6.84-14.42 8.55-13.34Q10.26-12.26 12.71-11.19Q15.16-10.11 18.06-9.36Q20.96-8.62 23.93-8.62L23.93-8.62Q28.09-8.62 30.25-10.03Q32.40-11.45 32.40-14.05L32.40-14.05Q32.40-16.42 30.69-17.76Q28.98-19.10 25.94-20.10Q22.89-21.11 18.73-22.30L18.73-22.30Q13.75-23.71 10.40-25.45Q7.06-27.20 5.43-29.88Q3.79-32.55 3.79-36.57L3.79-36.57Q3.79-41.99 6.35-45.67Q8.92-49.35 13.30-51.24Q17.69-53.14 23.04-53.14L23.04-53.14Q26.76-53.14 30.06-52.32Q33.37-51.50 36.27-50.17Q39.17-48.83 41.47-47.27L41.47-47.27Z"/>
    <path class="cls-2" transform="translate(395.12 102.69) rotate(-10.08)" d="M28.02 0.37L28.02 0.37Q22.22 0.37 17.50-1.86Q12.78-4.09 9.40-7.92Q6.02-11.74 4.16-16.54Q2.30-21.33 2.30-26.38L2.30-26.38Q2.30-31.66 4.27-36.45Q6.24-41.25 9.70-45.00Q13.15-48.75 17.87-50.95Q22.59-53.14 28.24-53.14L28.24-53.14Q33.96-53.14 38.68-50.83Q43.40-48.53 46.75-44.67Q50.09-40.80 51.95-36.05Q53.81-31.29 53.81-26.23L53.81-26.23Q53.81-21.03 51.88-16.24Q49.94-11.45 46.49-7.69Q43.03-3.94 38.31-1.78Q33.59 0.37 28.02 0.37ZM12.71-26.38L12.71-26.38Q12.71-22.96 13.75-19.77Q14.79-16.57 16.76-14.08Q18.73-11.59 21.59-10.14Q24.45-8.70 28.09-8.70L28.09-8.70Q31.81-8.70 34.71-10.22Q37.61-11.74 39.54-14.31Q41.47-16.87 42.47-20.03Q43.48-23.19 43.48-26.38L43.48-26.38Q43.48-29.80 42.40-32.96Q41.32-36.12 39.35-38.61Q37.38-41.10 34.52-42.55Q31.66-44.00 28.09-44.00L28.09-44.00Q24.30-44.00 21.44-42.47Q18.58-40.95 16.65-38.42Q14.72-35.90 13.71-32.78Q12.71-29.65 12.71-26.38Z"/>
    <path class="cls-2" transform="translate(447.77 93.4) rotate(-2.95)" d="M2.30-26.76L2.30-26.76Q2.30-31.59 4.05-36.23Q5.80-40.88 9.14-44.70Q12.49-48.53 17.32-50.80Q22.15-53.06 28.32-53.06L28.32-53.06Q35.60-53.06 40.91-49.87Q46.23-46.67 48.83-41.54L48.83-41.54L40.95-36.12Q39.61-39.09 37.46-40.84Q35.30-42.59 32.85-43.29Q30.40-44.00 28.02-44.00L28.02-44.00Q24.15-44.00 21.29-42.44Q18.43-40.88 16.50-38.35Q14.57-35.82 13.64-32.70Q12.71-29.58 12.71-26.46L12.71-26.46Q12.71-22.96 13.82-19.73Q14.94-16.50 16.98-14.01Q19.03-11.52 21.89-10.07Q24.75-8.62 28.17-8.62L28.17-8.62Q30.62-8.62 33.15-9.44Q35.67-10.26 37.83-12.04Q39.98-13.82 41.17-16.65L41.17-16.65L49.57-11.82Q48.01-7.88 44.48-5.13Q40.95-2.38 36.57-0.97Q32.18 0.45 27.87 0.45L27.87 0.45Q22.22 0.45 17.54-1.90Q12.86-4.24 9.48-8.14Q6.09-12.04 4.20-16.91Q2.30-21.78 2.30-26.76Z"/>
    <path class="cls-2" transform="translate(496.44 91.45) rotate(1.91)" d="M15.76 0L5.50 0L5.50-52.77L15.76-52.77L15.76 0Z"/>
    <path class="cls-2" transform="translate(516.66 91.46) rotate(6.8)" d="M0.37 0L19.84-52.77L30.25-52.77L49.65 0L39.09 0L34.19-13.15L15.76-13.15L10.93 0L0.37 0ZM17.47-20.36L32.33-20.36L25.05-42.14L17.47-20.36Z"/>
    <path class="cls-2" transform="translate(560.37 96.45) rotate(12.71)" d="M44.96-52.77L44.96-43.77L28.09-43.77L28.09 0L17.91 0L17.91-43.77L1.04-43.77L1.04-52.77L44.96-52.77Z"/>
    <path class="cls-2" transform="translate(604.24 106.82) rotate(17.3)" d="M15.76 0L5.50 0L5.50-52.77L15.76-52.77L15.76 0Z"/>
    <path class="cls-2" transform="translate(623.74 112.22) rotate(22.12)" d="M0.37 0L19.84-52.77L30.25-52.77L49.65 0L39.09 0L34.19-13.15L15.76-13.15L10.93 0L0.37 0ZM17.47-20.36L32.33-20.36L25.05-42.14L17.47-20.36Z"/>
    <path class="cls-1" d="m581.51,103.57c2.64,1.32,3.4,4.39,2.01,8.15-1.41,3.81-3.86,5.33-6.49,4.01-2.64-1.32-3.38-4.45-1.97-8.26,1.38-3.76,3.81-5.22,6.45-3.9Z"/>
  </g>
  <g>
    <path class="cls-1" d="m283.58,479.51c-.34,3.17-1.29,5.73-2.23,7.82-1.25,2.78-2.23,4.46-2.23,4.46-4.04,6.95-6.41,9.41-8.17,12.63-2.97,5.42-4.19,12.96-2.23,19.31,1.21,3.92,3.58,7.24,7.43,12.63,2.97,4.16,5.28,6.59,5.2,10.4-.02,1.2-.09,4.58-2.23,5.94-4.04,2.58-12.59-3.88-20.8-3.71-.72.01-1.96.09-2.23.74-.43,1.03,1.9,2.65,4.46,5.2,3.51,3.5,2.77,4.07,5.94,7.43,4.56,4.82,9.19,6.92,8.91,7.43-.2.37-2.68-.62-2.97-.74-9.48-3.84-17-11.75-17.83-12.63-8.28-8.85-11.49-17.39-11.89-18.57-.25-.74-.59-2.16-1.49-4.46-.62-1.57-.79-1.74-.74-2.23.16-1.88,2.96-2.76,5.94-4.46,1.34-.76,3.12-2.24,6.69-5.2,4.85-4.03,8.12-7.77,10.4-10.4,3.66-4.22,6.19-7.84,7.43-9.66,8.13-12,11.89-23.31,12.63-23.03.05.02.11.1,0,1.1Z"/>
    <g>
      <path class="cls-1" d="m387.82,685.06c-.71.6-4.38,3.58-8.92,2.97-3.58-.48-5.73-2.94-7.42-4.45-4.26-3.79-9.82-4.56-20.8-5.94-8.02-1.02-21.18-1.91-43.09.75-12.27,1.48-11.74,2.2-23.76,3.7-10.23,1.29-24.82,3.12-37.89,2.23-5.75-.38-50.45-3.96-60.17-30.45-4.83-13.15,1.15-26.05,1.48-26.73,2.77-5.75,10.26-17.04,19.32-17.83,1.36-.12,3.54-.07,4.45-1.49,1.17-1.8-.87-4.29-2.54-9.66,2.62,2.97,5.92,6.01,9.97,9.68,5.2,4.72,6.79,5.46,8.62,7.12,1.06.96,1.75,1.8,2.24,2.37,4.19,4.93,6.34,8.22,10.26,11.09,1.17.85,2.59,1.74,4.07,1.36.07-.01,1.59-.43,1.95-1.59.52-1.64-1.83-3.35-4.67-6.55-2.77-3.12-4.13-4.82-5.43-6.79,0,0-1.4-2.1-2.12-5.66-.16-.8-.19-1.23,0-1.36.56-.34,2.61,2.31,4.07,4.07,3.08,3.72,5.74,6.07,9.5,9.5,3.37,3.07,5.25,4.44,6.79,5.43,3.5,2.27,5.82,3.04,8.14,2.71.29-.04,2.51-.37,2.71-1.36.2-1.07-2.05-2.33-2.71-2.71-2.74-1.6-7.75-5.41-17.64-14.93,0,0-3.2-2.99-4.07-6.79-.09-.38-.27-1.22,0-1.36.49-.27,2.18,2.02,2.71,2.71.84,1.1,1.14,1.37,2.27,2.42s3.08,2.86,7.23,7.08c1.53,1.57,5.01,5.08,12.35,10.95,2.14,1.71,3.47,2.73,5.29,2.62.95-.07,2.46-.46,2.71-1.36.41-1.45-2.65-3.31-5.43-5.43-2.62-2.01-6.03-5.02-9.5-9.5-2.96-3.15-9.49-10.14-12.21-13.57-.65-.81-1.74-2.24-1.36-2.71.2-.28.84-.16,1.36,0,11.28,12.59,14.93,16.28,14.93,16.28,4.13,4.19,3.84,3.6,5.43,5.43,3.19,3.69,3.98,5.67,6.79,6.79,1.95.77,4.76,1.07,5.43,0,.12-.22.2-.54,0-1.36-.65-2.44-2.58-3.96-2.71-4.07-2.02-1.6-5.88-6.95-13.57-17.64-7.02-9.74-3.64-7.98-9.5-16.28-1.15-1.63-4.06-5.63-2.71-8.14.39-.76,1.07-1.19,1.36-1.36,2.13-1.36,4.84-.54,6.79,0,8.73,2.44,12.72,2.7,14.93,2.71.69,0,1.48-.03,2.32-.18.88,1.18,2.06,2.85,4.3,5.51,5.93,7.02,9.01,8.81,13.37,13.37,7.63,7.95,14.66,19.62,11.89,23.03-.38.48-.79.18-5.2,1.49-1.6.47-2.4.71-3.13,1-2.12.83-5.92,2.29-6.53,4.94-.42,1.87,1.15,2.52.75,3.7-1.48,4.41-24.85.83-40.11,1.49-1.94.08-3.76.23-5.94.73-6.99,1.63-7.48,4.48-11.14,4.46-6.79-.04-13.34-9.95-14.11-11.14-1.61-2.52-2.33-4.48-3.7-4.46-2.1.03-3.98,4.6-4.46,8.17-.87,6.31,2.27,11.47,2.97,12.63,1.8,2.96,7.49,10.49,37.14,15.61,12.46,2.14,23.79,4.1,39.37,2.97,15.9-1.15,18.01-4.21,40.11-5.94.72-.07,8.66-.29,24.51-.75,5.31-.15,9.4-.24,14.86.75,4.53.81,9.31,1.74,14.11,5.2,2.88,2.06,6.96,5.01,8.17,10.39,1.07,4.75-.28,10.58-4.45,14.11Z"/>
      <ellipse class="cls-1" cx="532.87" cy="599.23" rx=".74" ry="2.65"/>
      <ellipse class="cls-1" cx="538.56" cy="593.92" rx="1.11" ry="2.65"/>
      <circle class="cls-1" cx="602.26" cy="608.3" r="1.11"/>
      <circle class="cls-1" cx="596.95" cy="613.61" r="1.11"/>
      <ellipse class="cls-1" cx="591.27" cy="609.84" rx=".74" ry="2.65"/>
      <circle class="cls-1" cx="591.64" cy="629.54" r="1.11"/>
      <path class="cls-1" d="m620.82,625.81c-1.45,2.23-1.99,4.06-1.36,5.43.07.12.49,1.02,1.36,1.36,2.02.77,4.93-2.09,6.79-4.07,1.95-2.08,4.08-4.6,6.19-7.22-.26,1.15-.57,2.32-.92,3.53-1.9,2.88-3.18,4.99-5.27,6.41-.04.03-1.45.98-2.71,2.71-.75,1.02-1.91,2.63-1.36,4.07.23.57.73,1.13,1.36,1.36.52.19,1.06.15,1.63-.04-.19.3-.38.61-.57.91-2.31,3.6-4.22,5.59-6.68,8.17-4.36,4.55-8.02,8.29-11.15,7.42-1.53-.42-2.27-2.06-3.7-4.45-2.51-4.19-2.39-7.79-.75-24.51.19-1.86,1.34-13.15,4.45-20.06.73-1.61,1.61-3.09,2.97-4.46,2.61-2.61,3.89-1.7,5.94-3.72,2.47-2.42,3.3-6.35,4.46-11.87.04-.2.23-1.13.75-2.24.42-.94.88-1.94,1.48-2.23,1.44-.69,4.61,2.35,6.69,5.2.38.53.73,1.06,1.04,1.6-.34.43-.72.91-1.14,1.42-4.17,5.25-2.74,4.02-4.07,5.43-.9.96-2.12,2.13-2.71,4.07-.46,1.52-.18,2.33,0,2.71.07.14.46.92,1.36,1.36,1.09.52,2.21.16,2.71,0,2.9-.95,4.06-4.03,7.02-7.07.53,2.21.83,4.51.99,6.83,0,0,.08,1.19.03,3.26-5.46,6.84-12.5,15.12-14.82,18.7Z"/>
      <path class="cls-1" d="m538.17,540.85c-1.38-2.39-4.14-5.04-7.43-5.2-2.55-.11-4.46,1.38-7.38,3.72-.8.58-3.77,3.03-7.43,8.18-1.27,1.8-3.29,4.78-5.2,8.92-3.82,8.02-1.59,7.91-5.2,16.35-1.11,2.55-3.13,6.85-1.49,8.92.37.48,1.27,1.06,1.49,2.23.21,1.33-.69,2.34-.37,2.6.27.21,1.27-.32,1.86-1.11.64-.85.42-1.54.74-2.23.48-1.11,1.86-1.7,4.46-2.23,4.19-.85,5.15-.21,7.43-.74,3.03-.69,4.94-2.65,7.38-5.2,3.08-3.19,4.78-6.37,5.95-8.92,4.94-10.51,8.87-18.9,5.2-25.27Zm-21.98,34.51c-2.92,0-5.31-2.39-5.31-5.31s2.39-5.31,5.31-5.31,5.31,2.34,5.31,5.31-2.39,5.31-5.31,5.31Zm11.36-12.85c-.21.96-1.27,1.38-1.43,1.49-.21.05-1.27.48-2.23,0-.9-.48-1.17-1.43-1.49-2.97-.27-1.06-.42-1.7,0-2.23.32-.53.96-.74,1.49-.74.85-.05,1.49.64,2.23,1.49.9,1.01,1.7,1.91,1.43,2.97Z"/>
      <path class="cls-1" d="m586.65,347.24c-1.38,2.18-4.57,2.21-5.94,2.23-3.05.03-5.33-1.17-5.94-1.48-6.61-3.46-18.13-9.42-20.06-10.41-9.25-4.72-10.87-3.8-14.11-7.42-3.34-3.73-5.02-8.49-5.94-11.14-1.32-3.77-1.83-6.85-2.23-9.66-3.07-21.75.83-27.9.75-40.11-.01-.88-.05-3.5,1.48-4.45,1.19-.75,2.43.1,4.46,0,2.35-.12,3.98-1.41,5.93-2.97,1.75-1.38,4.78-4.21,7.44-9.66,2.25-4.61,4.42-9.05,3.72-14.11-1.04-7.34-6.95-7.38-9.66-14.86-2.99-8.22,2.7-12.29,2.23-23.02-.19-4.4-1.34-8.33-2.81-11.66v-.03c.14-3.18-.14-8.63,2.78-10.54,2.63-1.72,5.62.96,10.61-1.44.41-.19,2.96-1.41,2.78-2.46-.11-.64-1.21-.92-2.02-1.18-1.1-.35-2.93-1.6-6.58-4.1-4.37-2.99-3.77-4.6-6.95-6.76-6.76-4.59-15.69-1.45-16.77-1.06-2.09.76-6.26,2.29-6.6,4.65-.94-.48-1.9-.92-2.86-1.34,1.15-.3,2.01-1.34,2.01-2.58,0-1.47-1.19-2.65-2.66-2.65s-2.66,1.18-2.66,2.65c0,.53.15,1.02.43,1.44-.95-.35-1.91-.66-2.88-.94,1.18-1.93-.3-5.77-1.07-7.75-.41-1.03-3.69-9.12-10.92-11.59,1.25-1.55,2.55-3.03,3.83-4.34,3.75-3.85,8.59-8.83,15.61-11.14,18.25-6.01,43.03,8.78,50.51,27.48,3.57,8.96,3.26,18.96,2.97,28.24-.11,3.19-.81,8.6-2.23,19.31-3.16,23.83-4.17,26.14-3.72,34.17.27,5.03.79,6.12,1.48,16.34.57,8.21.85,12.32.75,16.34-.24,9.59-2.01,19.42-3.72,28.97-.52,2.93-1.18,6.42-.73,11.14.47,5.05,1.98,8.97,2.97,11.14,2.62,5.81,8.21,13.92,13.37,17.83.48.37,2.12,1.57,2.97,3.72.23.58,1.28,3.19,0,5.2Z"/>
      <path class="cls-1" d="m549.88,230.69c-1.83,1.15-3.53-.87-8.17,0-1.83.34-4.56.84-6.69,2.96-2.04,2.04-2.8,4.8-5.2,5.21-.35.05-.53.08-.73,0-1.68-.73.91-6.53-1.49-8.92-.84-.84-1.3-.29-4.45-1.49,0,0-2.36-.9-4.46-2.23-2.54-1.6-3.91-3.38-5.94-5.94,0,0-2.78-3.49-6.68-8.17-.84-1-.76-.88-9.66-10.39-3.37-3.6-3.92-4.21-5.2-4.46-3.23-.65-6.69,1.82-10.39,4.46-1.75,1.25-2.94,2.29-3.72,2.97-7,6.12-11.29,9.87-15.61,12.62-2.14,1.37-5.47,3.24-10.03,4.83.91-4.99,2.51-12.16,5.58-20.42,3.01-8.16,6.13-16.57,13.37-25.25,3.95-4.74,9.34-11.21,17.36-14.62,1.41-.22,2.82-.45,4.22-.72,1.52-.3,2.85-.37,4.46-.31.83.03,1.75.1,2.81.18h.04c.5.04,1.03.08,1.6.14,8.59.73,11.68,3.15,13.38,1.48.12-.12.23-.27.33-.42.14-.23.24-.5.31-.79.71.15,1.41.34,2.14.54.04.43.18.83.42,1.18.46.73,1.29,1.22,2.23,1.22.22,0,.43-.03.64-.08h.01c.49-.12.92-.39,1.26-.75.69.29,1.38.6,2.09.95-.26.35-.43.73-.49,1.14-.01.05-.03.12-.03.19-.14,2.37,3.75,3.09,9.96,9.05,3.01,2.89,4.52,4.33,5.89,6.69,1.52,2.61,3.2,5.1,4.78,7.67.66,1.09,1.04,1.74,1.47,1.67.33-.04.5-.49.6-1.18,1.25,3.22,1.95,6.04,2.52,8.3.46,1.85.88,3.81,2.23,18.56.92,10.01,1.07,12.97-.75,14.13Z"/>
      <path class="cls-1" d="m455.91,241.45c0-2.49,1.45-4.16,2.97-5.94.72-.84,3.17-3.7,6.31-4.09.69-.08,2.46-.3,3.71.74,0,0,.11.09.21.19,1.68,1.68.81,7.59.53,9.47-.93,6.41-.73,6.82-1.49,7.43-2.32,1.87-7.06.34-9.66-2.23-.55-.55-2.61-2.58-2.6-5.57Z"/>
      <path class="cls-1" d="m507.54,231.42c1.09.68,1.24,2.21,1.49,5.2.15,1.84.27,3.24,0,5.2-.39,2.87-.68,4.96-2.23,5.94-.86.54-2.3.36-5.2,0-3.54-.44-5.21-1.15-5.94-1.49-1.45-.67-2.42-1.14-2.97-2.23-.73-1.44-.23-2.99,0-3.71.71-2.23,2.26-3.48,4.46-5.2,2.23-1.75,4.65-3.06,7.43-3.71,1.95-.46,2.59-.24,2.97,0Z"/>
      <path class="cls-1" d="m440.38,251.99c-.53-1.33-1.65-3.56-2.97-5.95-3.13-5.47-4.35-5.63-7.43-10.41-5.89-9.13-8.92-14.86-8.92-14.86-.37-.69-1.17-2.23-2.23-2.23-1.22,0-2.23,1.91-3.72,5.95-4.14,11.2-6.21,16.78-6.69,20.07-.11.58-.27,2.23-1.49,2.97-1.11.64-2.6.11-2.97,0-4.41-1.33-18.16,3.77-20.07,4.46-9.18,3.4-13.8,5.1-19.27,8.92-2.65,1.8-4.41,3.34-7.43,3.66-2.44.32-2.65-.53-11.89-2.92,0,0-2.97-.8-8.92-1.49-2.5-.32-2.81-.27-2.97,0-1.65,2.12,9.13,15.98,14.86,21.5.64.69,2.6,2.5,2.97,5.2.27,2.23-.58,4.03-.74,4.46-2.76,6.21-6.53,38.91-7.43,57.97-.32,6.16-1.49,36.95,8.92,46.77,1.27,1.22,5.04,4.78,8.18,3.72,2.23-.74,3.19-3.61,3.72-5.2,3.5-11.2,5.26-16.78,5.95-22.3,2.6-22.62,10.62-25.16,6.64-33.39-1.75-3.77-5.63-7.59-13.38-15.29-3.77-3.77-4.03-3.61-5.31-5.31-.69-.9-1.22-1.81-1.75-2.71,2.76,2.28,6.21,3.61,9.34,3.98,8.71,1.11,14.81-5.68,17.04-8.18,5.36-5.95,6.32-12.85,6.69-15.61.27-1.7.58-4.25,0-7.43-.53-3.08-1.43-3.93-2.97-8.18-1.91-5.42-3.13-8.92-1.49-11.15,1.27-1.65,4.09-2.28,5.95-1.49,1.17.53,1.81,1.54,2.97,4.46,2.6,6.48,2.02,7.8,3.72,10.41,2.23,3.4,5.73,4.83,6.69,5.2,3.98,1.49,5.63-.05,10.41,1.49,3.61,1.17,3.77,2.44,5.95,2.97,5.84,1.49,12.95-5.1,16.35-9.66,7.38-9.87,6.8-22.99,3.72-30.42Zm-65.14,43.48c-5.04,1.75-9.87,1.01-10.83-1.7-.96-2.71,2.34-6.37,7.38-8.12s9.87-1.01,10.83,1.7-2.34,6.32-7.38,8.12Zm37.06-15.5c-5.04,1.81-9.93,1.01-10.88-1.7-.96-2.71,2.39-6.32,7.38-8.07,5.04-1.81,9.93-1.06,10.88,1.65.96,2.76-2.39,6.37-7.38,8.12Z"/>
      <path class="cls-1" d="m439.57,320.19c-1.8,2.45-1.84,2.74-2.23,2.97-1.11.67-3.26-.21-4.46-1.49-2.3-2.45-1.58-6.89,0-9.66,1.65-2.9,4.32-4.08,5.2-4.46,3.98-1.7,7.71-.58,9.66,0,3.3.99,5.43,2.69,6.69,3.71,1.93,1.57,4.91,4,5.94,8.17.4,1.61,1.12,3.82,0,5.2-.98,1.21-2.46.69-6.31,1.11-5.64.62-7.17,2.23-8.54,1.11-1.79-1.47.11-4.87-2.23-6.69-.59-.46-1.97-1.23-2.97-.74-.3.15-.46.35-.74.74Z"/>
      <path class="cls-1" d="m572.16,240.34c-1.87,1.42-.28,5.53.74,11.89.83,5.18.8,9.15.74,17.08-.04,4.9-.06,8.47-.74,13.37-.51,3.69-.94,4.88-2.97,16.34,0,0-.59,3.31-.74,8.17-.12,3.78-.19,6.38.74,6.69.89.29,2.34-1.78,5.2-5.94,2.54-3.69,3.82-5.53,4.46-7.43.93-2.79.41-3.54,1.49-8.91.62-3.08.92-4.62,1.49-5.94,1.85-4.35,5.82-8.34,10.4-8.91.84-.1,2.88-.36,3.71.74,1.1,1.45-.57,4.38-1.49,5.94-2.83,4.83-5.02,4.63-7.43,8.17-3.12,4.59-.36,6.3-3.71,12.63-1.99,3.75-3.3,3.78-5.2,8.17-1.3,3-1.88,5.73-2.23,7.43-.68,3.31-1.02,4.97-.74,6.69.5,3.04,2.28,5.02,5.2,8.17,4.35,4.68,6.53,4.93,7.43,8.17.16.6,1.01,3.64-.74,5.94-.83,1.09-2.21,1.98-3.71,2.23-1.35.22-2.14-.2-2.23,0-.25.57,6.63,3.43,14.11,8.17,5.86,3.71,7.43,5.93,9.66,5.2,1.94-.63,2.19-2.79,4.46-8.91,3.82-10.34,5.15-9.72,6.69-16.34,1.25-5.38,1.88-8.12,1.49-11.89-.17-1.58-.61-4.25,0-4.46.46-.15,1.28,1.16,1.49,1.49,2.63,4.19-.68,14.7-6.69,30.46-1.45,3.79-2.77,7.16-5.94,10.4-2.34,2.39-3.22,2.19-6.69,5.2-4.04,3.51-7.14,6.2-8.17,10.4-.87,3.54-.5,9.01,2.97,11.89,5.49,4.56,15.08-.44,17.08-1.49,3.93-2.05,6.51-4.65,11.14-10.4,7.1-8.81,11.94-16.24,14.86-20.8,3.67-5.75,10.37-16.51,13.37-26,2.3-7.26,1.8-11.79.74-13.37-.15-.23-.78-1.09-.74-2.23.03-.94.52-1.63,1.49-2.97.92-1.28,1.4-1.92,2.23-2.23.97-.36,1.88-.09,2.23,0,0,0,.06.01,8.91,0,1.78,0,17.71-.66,35.66-9.66,0,0,25.91-12.99,42.34-43.08,1.77-3.24,4.41-8.57,4.46-15.6.02-3.01.09-14.21-8.17-19.31-4.23-2.61-10.41-3.48-15.6-.74-3.58,1.89-8.05,6.23-7.43,10.4.57,3.84,4.95,4.25,8.17,10.4,0,0,1.74,3.32,2.23,7.43,1.24,10.42-8.39,19.71-13.37,24.51-7.14,6.89-13.67,10.02-23.77,14.86-16.35,7.84-23.99,7.62-26.74,7.43-8.05-.56-12.26-3.6-13.37-4.46-4.23-3.25-5.99-7.39-6.69-8.91-4.74-10.29-15.12-17.91-31.2-29.71,0,0,0,0,0,0-7.6-6.65-14.8-9.27-37.14-16.34-1-.32-2.64-.81-3.71,0Z"/>
      <path class="cls-1" d="m387.18,440.14c-.85,2.5-5.52,2.87-6.69,2.97-3.13.32-7.86-.16-16.3-5.2-6.69-3.98-5.73-4.83-10.41-7.43-2.44-1.33-13.48-7.33-22.3-2.97-3.4,1.7-5.15,4.3-8.18,8.92-1.54,2.39-2.65,4.46-3.56,6.37-3.77.53-6.58,2.6-6.58,5.15,0,1.65,1.22,3.13,3.13,4.09-.32,1.01-.74,1.96-1.17,2.97-5.95,13.27-21.87,24.47-30.47,20.81-6.26-2.71-7.27-12.74-7.38-14.12-1.38-13.27,10.25-24.42,11.1-25.27,2.81-2.6,4.35-3.08,5.95-5.95,1.49-2.55,1.91-5.1,1.49-16.3-.21-6.53-.58-11.57.74-17.84.69-3.08,1.59-5.84,2.97-5.95.69-.05,1.22.48,1.49.74,6.74,6.8,10.41,16.35,10.41,16.35,3.19,8.28,3.61,11.1,6.69,12.64,1.22.58,2.76.64,5.95.74,6.11.16,7.8-.74,13.38-.74,2.71,0,4.78.21,8.92.74,8.97,1.06,8.87,2.02,11.15,1.49,1.86-.48,2.76-1.33,11.89-12.64,2.39-3.03,5.36-5.63,7.38-8.92,1.59-2.55,3.4-6.05,6.69-6.69.64-.16,1.06-.21,1.49,0,2.23,1.06.21,7.64-.74,17.09-1.27,12.85-1.91,19.38,1.49,24.47.69,1.01,2.07,2.81,1.49,4.46Z"/>
      <ellipse class="cls-1" cx="358.93" cy="449.13" rx="3.54" ry="5.48"/>
      <circle class="cls-1" cx="343.66" cy="462.8" r="2.65"/>
      <path class="cls-1" d="m426.57,603.57c-1.69.69-5.58-4.07-8.91-9.66-7.32-12.26-9.51-24.35-11.51-41.97-1.98-17.41-2.98-26.12-2.97-35.66,0-11.92.21-36.4,9.66-64.63,3.14-9.4,9.79-26.61,13.37-41.6,0,0,1.26-5.28,1.49-24.51,0-.48.01-2.3-.74-4.46-.54-1.54-1.18-3.37-2.97-4.46-1.77-1.07-4.4-1.26-5.94,0-.32.27-.68.66-1.49,2.97-1.5,4.31-1.05,5.21-2.23,6.69-.15.19-1.97,2.4-4.46,2.23-2.07-.14-3.42-1.85-3.71-2.23-3.26-4.12-.87-11.49,1.49-15.6.94-1.63,2.34-4.02,5.2-5.94,5.54-3.73,11.65-2.45,12.63-2.23,7.39,1.67,10.96,8.01,11.89,9.66,3.61,6.42,2.93,13.03,2.23,18.57-2.97,23.34-6.69,35.66-6.69,35.66s-5.9,19.57-10.4,43.08c-2.44,12.78-3.11,30.31-4.46,65.37-.27,7.03-.55,16.47,2.97,24.51,5.23,11.93,6.69,14.11,6.69,14.11.86,1.29,1.75,2.49,2.23,4.46.99,4.09-.99,6.67-2.23,11.14-2.31,8.35.61,13.78-1.11,14.49Z"/>
      <path class="cls-1" d="m426.94,613.6c.58-3.84,1.96-6.44,4.46-11.14,3.28-6.17,6.72-9.97,10.4-12.63,2.94-2.12,4.57-2.45,5.94-2.23,2.66.43,4.22,2.9,5.2,4.46,2.04,3.23,4.31,9.56,1.49,13.37-1.99,2.68-4.54,1.49-6.69,4.46-1.34,1.85-1.39,4.21-1.49,8.91-.04,1.99.03,5.1.74,8.91.64,3.44,1.01,3.25,1.49,5.94.59,3.37,1.36,7.75-.74,11.89-.24.48-3.11,6.1-6.69,5.94-3.98-.18-6.41-7.42-11.14-21.54-3.24-9.66-3.47-13.04-2.97-16.34Z"/>
      <path class="cls-1" d="m471.48,413.44c.48.3.99-.21,2.53-.3.91-.05,2.41-.13,2.81.59.48.87-1.19,1.96-1.69,4.73-.17.96-.42,2.34.28,3.25,1.03,1.34,3.82,1.22,5.62,0,1.89-1.29,1.42-2.93,3.37-4.14,1.78-1.1,3.79-.72,4.49-.59,2.55.48,3.2,1.99,5.06,2.95,4.31,2.25,11.85-.13,14.61-4.73,1.38-2.3,1.03-4.29,3.37-6.5.7-.66,2.15-2.04,3.93-1.77,1.9.28,2.99,2.27,3.37,2.95,1.22,2.22.36,3.22,1.12,4.73,1.9,3.77,10.51,3.98,14.61,3.54,1.38-.15,3.47-.5,5.62.59.82.42,1.05.74,2.81,1.77,1.76,1.03,2.09,1.04,3.37,1.77,3.13,1.8,3.77,3.29,4.49,2.95.94-.43,1.22-3.54,0-5.91-1.51-2.92-4.21-2.58-5.06-5.32-.38-1.23-.39-3.1.56-4.14,1.14-1.25,2.81-.38,3.93-1.77.64-.8.85-2.01.56-2.95-.41-1.32-1.68-1.72-3.93-2.95-3.15-1.72-4.73-2.58-5.06-3.54-1.22-3.57,8.77-10.13,8.43-10.63-.24-.35-5.07,2.8-7.87,4.73-2.03,1.4-3.05,2.1-3.37,2.36-2.44,2-3.31,3.43-5.06,3.54-1.06.07-1.86-.39-2.25-.59-4.2-2.2-13.03-2.52-17.42-2.36-4.54.17-12.03.44-15.17,2.95-.37.29-1.84,1.55-3.37,1.18-.88-.21-1.44-.88-1.69-1.18-5.25-6.46-11.74-11.68-17.42-17.72-.2-.21-.65-.67-1.12-.59-1.14.2-1.51,3.34-1.69,4.73-.97,7.87-.92,15.95-2.81,23.63-.18.75-1.03,4.08,0,4.73Z"/>
      <ellipse class="cls-1" cx="491.78" cy="434.11" rx="5.58" ry="2.03" transform="translate(-80.01 755.6) rotate(-70.78)"/>
      <ellipse class="cls-1" cx="531.23" cy="436.56" rx="2.43" ry="5.41" transform="translate(-83.17 127.84) rotate(-12.73)"/>
      <path class="cls-1" d="m450.34,258.16c-1.24.1-1.59,8.2-1.49,13.37.19,9.45,1.99,15.32,3.71,19.31,2.78,6.46,5.21,7.74,6.69,8.17.21.06,3.36.95,5.2-.74,2.08-1.92,1.11-5.9.74-7.43-.49-2.02-1.31-3.41-1.49-3.71-2.98-5.09-7.11-12.18-8.17-14.11-4.58-8.32-4.08-14.95-5.2-14.86Z"/>
      <path class="cls-1" d="m713.67,473.21c.53.2,2.14-1.99,2.97-4.46.3-.89.43-1.68,0-8.91-.18-3.01-.27-4.02-1.11-4.83-1.09-1.05-2.11-.5-3.71-1.49s-3.02-3.04-2.97-5.2c.09-3.87,4.86-5.81,5.2-5.94,2.52-.99,4.79-.45,6.69,0,1.48.35,3.15.77,4.46,2.23.25.28.86,1.01,1.49,2.97.67,2.09,1.84,5.75.37,9.29-1.09,2.63-2.43,2.29-2.6,4.09-.22,2.35,2.06,3.08,4.09,7.8.99,2.31.62,2.56,1.49,3.71.96,1.29,5.59,3.54,5.94,3.71,4.14,2.03,4.02,4.79,6.31,4.83,2.13.04,3.79-2.32,5.2-4.46,5.1-7.73,7.64-11.59,9.66-17.83,1.52-4.7,3.33-10.29,2.97-17.83-.23-4.97-1.3-8.53-2.97-14.11-.43-1.43-2.09-6.84-2.97-6.69-.56.1-.18,2.32-1.11,5.57-.79,2.76-2.06,4.62-2.97,5.94-2.32,3.36-4.88,5.32-6.69,6.69-1.3.98-2.85,1.89-5.94,3.71-2.17,1.28-3.17,1.78-4.46,2.23-1.67.58-3.35,1.14-5.2.74-1.76-.38-2.06-1.28-3.71-2.23-3.36-1.92-7.23-1.11-10.77-.37-3.47.72-5.2,1.09-6.31,2.6-1.54,2.1-.9,4.93,0,8.91.4,1.77,1.07,4.74,2.97,8.17,1.89,3.4,3.46,4.49,3.71,7.43.18,2.06-.41,3.56,0,3.71Z"/>
      <path class="cls-1" d="m576.99,541.55c-.16.59-.07.38-.74,8.91-.42,5.39-.59,7.23,0,7.43.73.24,2.21-2.14,2.97-3.71,1.64-3.38.83-4.76,2.23-7.43.27-.51,2.41-4.49,5.2-4.46,2.96.03,4.99,4.56,5.94,6.69,1.08,2.4,1.7,4.84,2.23,11.14.68,8.17,1.02,12.26.74,17.08-.11,1.96-.37,5.09.74,8.91,1.03,3.53,2.37,4.73,2.97,5.2.22.17,2.89,2.19,5.94,1.49,1.99-.46,3.33-2.29,5.94-5.94,2.63-3.67,4.05-6.56,5.2-8.91,1.8-3.7,2.1-5.08,2.23-5.94.32-2.1.72-4.71-.74-6.69-1.53-2.06-5.02-3.37-5.94-3.71-.89-.33-1.19-.37-1.49-.74-1.11-1.43,1.22-3.63,1.49-7.43.02-.34.3-5.08-2.23-6.69-1.66-1.05-2.97.24-5.2-.74-2.55-1.13-3.56-4.02-3.71-4.46-1.53-4.38,1.82-7.05,0-10.4-1.02-1.88-2.97-2.67-3.71-2.97-2.39-.97-4.52-.49-6.69,0-1.19.27-3.9.91-6.69,2.97-4.77,3.54-6.21,8.62-6.69,10.4Z"/>
      <path class="cls-1" d="m488.23,544.15c1.03-4.56,6.85-7,9.66-8.17,2.78-1.17,2.35-.47,7.43-2.23,3.99-1.38,5.53-2.26,8.91-2.97,3.4-.72,5.55-1.17,6.69,0,1.91,1.96-.49,6.92-.74,7.43-1.53,3.09-2.88,2.9-5.94,6.69-2.46,3.03-3.77,5.84-5.2,8.91-1.15,2.47-1.79,3.86-2.23,5.94-.07.34-.09.48-.74,5.2-.47,3.39-.51,3.74-.74,4.46-.38,1.19-.99,2.28-2.23,4.46-1.57,2.78-1.93,2.97-2.23,2.97-1.01,0-1.71-2.26-2.23-3.71-2.05-5.77-3.02-4.2-5.94-11.14-1.38-3.29-2.16-6.4-3.71-12.63-.9-3.61-.95-4.3-.74-5.2Z"/>
      <circle class="cls-1" cx="550.71" cy="572.68" r="2.65"/>
      <ellipse class="cls-1" cx="516.21" cy="593.92" rx="10.62" ry="7.96"/>
      <path class="cls-1" d="m575.88,665.97c2.99-.93,5.52-1.68,7.43-2.23,7.93-2.29,6.43-1.56,8.17-2.23,3-1.16,4.81-2.3,6.69-1.49.2.09,1.32.57,1.49,1.49.24,1.29-1.59,2.54-2.23,2.97-2.08,1.42-4.42,1.57-5.94,1.49"/>
      <circle class="cls-1" cx="561.33" cy="620.46" r="2.65"/>
      <ellipse class="cls-1" cx="570.41" cy="609.84" rx="1.11" ry="2.65"/>
      <circle class="cls-1" cx="630.35" cy="572.68" r="2.65"/>
      <circle class="cls-1" cx="640.97" cy="567.37" r="2.65"/>
      <circle class="cls-1" cx="635.66" cy="556.75" r="2.65"/>
      <ellipse class="cls-1" cx="639.43" cy="551.45" rx="1.11" ry="2.65"/>
      <ellipse class="cls-1" cx="694.05" cy="623.12" rx="2.65" ry="5.31"/>
      <ellipse class="cls-1" cx="694.05" cy="613.61" rx="2.65" ry="1.11"/>
      <circle class="cls-1" cx="704.67" cy="615.15" r="2.65"/>
      <circle class="cls-1" cx="699.36" cy="599.23" r="2.65"/>
      <circle class="cls-1" cx="511.73" cy="568.88" r="2.65"/>
      <ellipse class="cls-1" cx="373.95" cy="290.34" rx="2.65" ry="5.68"/>
      <ellipse class="cls-1" cx="411.11" cy="275.07" rx="2.65" ry="5.59"/>
      <ellipse class="cls-1" cx="321.6" cy="447.92" rx="3.54" ry="5.31"/>
    </g>
  </g>
  <g>
    <g>
      <path class="cls-1" d="m459.26,221.38c-.16,0-.3-.1-.34-.26-.05-.19.06-.39.25-.44,1.58-.43,3.21-.8,4.85-1.12,3.3-.63,6.69-1,10.08-1.12.19.02.36.15.37.34,0,.19-.15.36-.34.37-3.35.11-6.71.48-9.97,1.11-1.63.31-3.24.69-4.8,1.11-.03,0-.06.01-.09.01Z"/>
      <path class="cls-1" d="m499.74,219.52c-.17,0-.32-.12-.35-.29-.03-.19.09-.38.29-.41,2.22-.4,4.48-.65,6.73-.75,1.49-.07,3.01-.07,4.49,0,.2,0,.35.17.34.37,0,.19-.18.34-.37.34-1.46-.07-2.95-.07-4.43,0-2.22.1-4.45.34-6.64.74-.02,0-.04,0-.06,0Z"/>
      <path class="cls-1" d="m467.06,249.97c-.15,0-.29-.1-.34-.25-.06-.19.04-.39.23-.45,1.79-.57,3.52-1.31,5.14-2.2,2.42-1.33,3.62-2.04,4.31-3.55.48-1.07.61-2.14.35-3.11-.1-.37-.33-.8-2.52-3.2-1.9-2.08-2.49-2.59-2.93-2.93-.68-.54-1.42-1.03-2.18-1.46-.17-.1-.23-.31-.14-.49s.31-.23.48-.14c.8.45,1.57.96,2.28,1.52.48.37,1.07.89,3.01,3.01,2.36,2.58,2.55,2.99,2.68,3.49.3,1.12.16,2.36-.39,3.58-.81,1.79-2.32,2.62-4.61,3.88-1.66.91-3.43,1.67-5.26,2.26-.04.01-.07.02-.11.02Z"/>
      <path class="cls-1" d="m505.68,247.75c-.18,0-.33-.13-.35-.31-.02-.19.11-.37.31-.4,3.04-.38,5.75-1.12,8.07-2.2.46-.21,1.54-.72,2.48-1.77.42-.47,1.69-1.88,1.4-3.41-.08-.44-.26-.82-1.03-1.69-1.77-2-3.65-3.21-4.37-3.64-1.59-.94-3.31-1.68-5.12-2.19-.19-.05-.3-.25-.24-.44.05-.19.25-.29.44-.24,1.87.53,3.64,1.29,5.28,2.26.75.44,2.71,1.71,4.54,3.78.78.88,1.08,1.39,1.2,2.03.35,1.87-1.09,3.49-1.57,4.02-.93,1.04-1.94,1.58-2.72,1.94-2.38,1.11-5.17,1.86-8.28,2.26-.02,0-.03,0-.04,0Z"/>
      <path class="cls-1" d="m483.24,264.09c-.75,0-2.59-.16-3.83-1.61-1.45-1.69-1.05-3.91-.81-4.78.34-1.25.97-1.91,1.59-2.54.52-.54,1.02-1.05,1.4-1.96.57-1.38.57-3.05-.01-4.96-.06-.19.05-.39.24-.44.18-.06.38.05.44.24.63,2.08.63,3.91-.01,5.44-.43,1.03-.99,1.61-1.54,2.18-.6.62-1.12,1.16-1.41,2.23-.21.77-.56,2.7.67,4.13,1.14,1.33,2.91,1.4,3.43,1.36h.01c.19,0,.35.15.36.34s-.15.36-.34.37c-.05,0-.1,0-.17,0Z"/>
      <path class="cls-1" d="m492.47,275.35c-.64,0-1.21-.05-1.7-.12-.19-.03-.33-.21-.3-.4.03-.19.19-.34.4-.3,1.37.2,3.49.24,5.75-.72,3.56-1.5,5.21-4.53,5.76-5.76.08-.18.29-.26.47-.18.18.08.26.29.18.47-.58,1.31-2.34,4.52-6.13,6.12-1.61.68-3.15.89-4.43.89Z"/>
      <path class="cls-1" d="m674.34,434.47c-.12,0-.24-.06-.31-.17-4.13-6.96-26.86-43.01-68.26-68.49-21.87-13.46-31.8-17.76-31.9-17.8-5.05-2.17-10.04-4.7-14.85-7.14-3.64-1.85-7.39-3.75-11.15-5.49l-.28-.13c-3.16-1.46-5.07-2.34-7.25-4.39-6.11-5.77-7.21-14.27-8.28-22.5-.06-.44-.06-.49-.12-1.78-.07-1.51-.22-4.74-.63-12.36-.26-4.95.23-9.96.71-14.81.39-3.92.79-7.97.78-11.95,0-.5,0-1.77.87-2.5.78-.65,1.73-.47,2.74-.27.4.07.81.16,1.22.19,2.64.23,4.86-1.72,7.91-4.37.99-.86,2.98-2.77,5.14-5.88,2.81-4.04,5.03-7.24,5.13-11.69.07-3.01-.66-5.69-2.17-7.97-.94-1.42-2.16-2.64-3.62-3.62-.16-.11-.21-.33-.1-.49.11-.16.33-.21.49-.1,1.53,1.03,2.82,2.31,3.81,3.81,1.6,2.41,2.37,5.23,2.29,8.38-.11,4.67-2.38,7.94-5.26,12.08-2.2,3.17-4.24,5.13-5.26,6.01-3.18,2.76-5.49,4.78-8.43,4.54-.46-.04-.89-.12-1.31-.2-.91-.18-1.63-.32-2.15.12-.61.51-.61,1.51-.61,1.93,0,4.04-.4,8.1-.78,12.04-.48,4.82-.97,9.81-.7,14.71.41,7.63.56,10.86.63,12.37.06,1.28.06,1.3.11,1.72,1.05,8.1,2.14,16.48,8.06,22.07,2.09,1.97,3.96,2.83,7.06,4.26l.28.13c3.77,1.74,7.54,3.65,11.18,5.5,4.81,2.44,9.78,4.96,14.81,7.12.1.04,10.07,4.36,31.99,17.85,41.54,25.57,64.35,61.74,68.5,68.73.1.17.04.39-.12.49-.06.03-.12.05-.18.05Z"/>
      <path class="cls-1" d="m488.77,301.18c-3.27,0-7.28-.5-11.45-2.2-8.17-3.33-12.38-9.38-15.76-14.24-11.73-16.88-11.89-35.9-11.95-44.03-.05-5.98.46-12,1.49-17.89.03-.19.2-.31.41-.29.19.03.32.22.29.41-1.03,5.85-1.53,11.83-1.48,17.76.06,8.06.21,26.93,11.82,43.63,3.32,4.78,7.46,10.73,15.44,13.99,7.73,3.16,14.9,2.08,17.62,1.47,6.12-1.38,10.11-4.42,13.97-7.36,4.58-3.49,8.55-7.71,11.81-12.55.11-.16.33-.21.49-.09.16.11.21.33.1.49-3.3,4.9-7.33,9.18-11.97,12.71-3.93,2.99-7.98,6.08-14.25,7.49-1.32.29-3.65.7-6.59.7Z"/>
      <path class="cls-1" d="m516.82,238.09c-.11,0-.23-.06-.3-.16-.11-.16-.07-.38.1-.49l4.46-2.97c.16-.11.38-.07.49.1.11.16.07.38-.1.49l-4.46,2.97c-.06.04-.13.06-.2.06Z"/>
      <path class="cls-1" d="m514.64,235.68c-.11,0-.22-.05-.29-.14-.12-.16-.08-.38.08-.5l3.3-2.42c.16-.11.38-.08.5.07.12.16.08.38-.07.5l-3.3,2.42c-.06.05-.14.07-.21.07Z"/>
      <path class="cls-1" d="m457.77,240.69c-.08,0-.17-.03-.23-.09l-5.94-5.2c-.15-.13-.16-.35-.03-.5.13-.15.35-.17.5-.03l5.94,5.2c.15.13.16.35.03.5-.07.08-.17.12-.27.12Z"/>
      <path class="cls-1" d="m457.63,237.36c-.09,0-.17-.03-.24-.09l-2.83-2.61c-.14-.13-.15-.36-.02-.5.13-.14.36-.15.5-.02l2.83,2.61c.14.13.15.36.02.5-.07.07-.17.11-.26.11Z"/>
      <path class="cls-1" d="m252.26,554.62c-.09,0-.19-.04-.26-.11-.77-.8-1.49-1.59-2.12-2.33-7.3-8.57-9.7-18.22-10.48-23.2-2.95-18.78,6.44-33.38,10.45-39.61,5.66-8.79,13.31-15.89,17.89-20.13,3.11-2.88,6.36-5.63,9.68-8.19.16-.12.38-.09.5.06.12.16.09.38-.07.5-3.3,2.54-6.54,5.29-9.63,8.15-4.55,4.22-12.16,11.28-17.77,19.99-3.97,6.17-13.26,20.61-10.35,39.12.77,4.91,3.14,14.42,10.32,22.85.63.74,1.33,1.51,2.09,2.3.14.14.13.37,0,.5-.07.07-.16.1-.25.1Z"/>
      <path class="cls-1" d="m202.94,589.4c-.12,0-.23-.06-.3-.17-11.13-17.8-18.2-38.12-20.44-58.79-3.37-31.09,4.85-55.18,7.45-61.82,9.28-23.71,23.51-38.24,32.02-46.92,26.83-27.38,56.13-39.32,109.31-60.99,14.5-5.91,28.6-11.01,43.11-15.61,20.73-6.56,31.14-9.86,46.84-12.64,7.15-1.27,14.38-2.83,21.37-4.34,12.89-2.79,26.22-5.68,39.57-6.81,1.84-.15,3.53-.63,5.07-1.44.89-.47,1.79-.95,2.49-1.78.31-.37,1.27-1.49.66-9.4-.19-2.49-.69-4.96-1.47-7.34-.06-.19.04-.39.23-.45.2-.06.39.04.45.23.8,2.44,1.31,4.97,1.5,7.51.56,7.27-.15,9.12-.83,9.91-.79.93-1.76,1.44-2.7,1.94-1.63.86-3.41,1.37-5.3,1.52-13.35,1.13-26.65,4.01-39.52,6.8-7,1.52-14.24,3.08-21.4,4.35-15.66,2.77-26.05,6.06-46.75,12.61-14.49,4.59-28.58,9.69-43.06,15.59-53.1,21.64-82.35,33.56-109.08,60.83-8.47,8.64-22.64,23.1-31.86,46.68-2.58,6.6-10.76,30.56-7.4,61.48,2.23,20.56,9.26,40.79,20.33,58.49.1.17.05.39-.11.49-.06.04-.12.05-.19.05Z"/>
      <path class="cls-1" d="m400.3,310.23c-5.54,0-10.09-2.06-11.45-5.7-.67-1.79-.52-3.81.45-5.83,1.83-3.83,6.26-7.22,11.83-9.06,8.74-2.88,17.48-.94,19.46,4.36.67,1.79.52,3.81-.45,5.83-1.83,3.83-6.26,7.22-11.83,9.07-2.74.9-5.48,1.33-8.01,1.33Zm8.9-21.23c-2.47,0-5.16.42-7.85,1.32-5.31,1.75-9.68,5.08-11.41,8.69-.88,1.84-1.03,3.67-.43,5.27,1.85,4.95,10.18,6.71,18.57,3.94,5.31-1.76,9.68-5.09,11.41-8.69.88-1.84,1.03-3.67.43-5.27-1.26-3.36-5.5-5.25-10.72-5.25Z"/>
      <path class="cls-1" d="m443.99,248.52c-.24,0-.48,0-.73-.03-2.66-.22-4.53-1.55-5.41-2.32-.15-.13-.16-.35-.03-.5.13-.15.35-.17.5-.03.81.71,2.54,1.94,4.99,2.14,3.35.27,5.76-1.57,6.42-2.14.15-.13.37-.11.5.04.13.15.11.37-.04.5-.66.57-2.97,2.34-6.22,2.34Z"/>
      <path class="cls-1" d="m419.19,332.6c-.44,0-.84-.05-1.27-.19-4.64-1.49-5.42-9.62-5.45-9.96-.46-5.41,1.98-9.58,3.02-11.35,5.57-9.5,16.07-12.53,19.52-13.53,4.96-1.43,8.99-1.54,10.51-1.5,2.99.05,5.45.49,16.46,4.48,13.73,4.97,20.73,8.17,25.29,10.41,1.24.61,2.27,1.13,2.98,1.49.17.09.24.3.16.48s-.3.25-.48.16c-.7-.36-1.73-.87-2.97-1.48-4.55-2.23-11.52-5.42-25.22-10.38-10.91-3.95-13.32-4.38-16.23-4.44-1.47-.04-5.43.07-10.29,1.47-3.38.98-13.67,3.96-19.1,13.21-1.01,1.72-3.37,5.75-2.92,10.93.03.32.76,8,4.95,9.35.77.24,1.42.17,2.82-.01,11.95-1.61,13.8-2.31,15.42-3.64,1.73-1.42,2.54-2.86,2.87-3.59.86-1.93.86-3.79.71-5.01-.02-.19.11-.37.31-.4.2-.05.37.11.4.31.23,1.88-.03,3.75-.77,5.39-.36.79-1.23,2.33-3.07,3.84-1.77,1.45-3.58,2.15-15.78,3.79-.74.1-1.32.18-1.85.18Z"/>
      <path class="cls-1" d="m430.28,330.57s-.06,0-.09-.01c-.66-.16-2.88-.87-3.95-3.17-.68-1.47-.54-2.86-.4-3.57.04-.19.22-.32.42-.27.19.04.31.23.28.42-.13.62-.25,1.84.34,3.12.96,2.06,3.06,2.67,3.48,2.78.19.05.31.24.26.43-.04.16-.18.27-.34.27Z"/>
      <path class="cls-1" d="m434.97,330.46s-.06,0-.09-.01c-.66-.16-2.88-.87-3.95-3.17-.68-1.47-.54-2.86-.4-3.56.04-.19.22-.32.42-.27.19.04.31.23.28.42-.13.62-.25,1.84.34,3.12.96,2.06,3.06,2.67,3.48,2.78.19.05.31.24.26.43-.04.16-.18.27-.34.27Z"/>
      <path class="cls-1" d="m363.25,649.02c-2.66,0-4.99-1.68-7.08-3.18-1.64-1.17-4.11-2.95-5.33-6.1-.58-1.52-.65-3.39-.77-6.8-.12-3.38-.01-5.71,0-5.97.19-3.72.63-8.99,1.15-15.1.71-8.43,1.52-17.99,1.82-25.76.23-5.79.09-8.59-.03-11.3-.14-3.02-.28-5.88.03-12.47.13-2.69.29-5.14.45-7.51.34-5.17.64-9.63.3-13.24-.28-2.93-.18-4.2,0-6.73.08-1.13.24-2.66.75-4.53.21-.77.46-1.51.76-2.27.07-.18.28-.27.46-.2.18.07.27.28.2.46-.29.73-.53,1.45-.73,2.19-.5,1.81-.65,3.3-.73,4.39-.18,2.5-.27,3.75,0,6.63.34,3.67.05,8.16-.3,13.36-.16,2.37-.32,4.81-.45,7.49-.31,6.56-.18,9.4-.04,12.4.13,2.72.26,5.54.04,11.36-.31,7.78-1.11,17.35-1.83,25.79-.51,6.1-.96,11.36-1.15,15.07-.01.26-.12,2.56,0,5.92.12,3.58.2,5.22.72,6.57,1.14,2.96,3.41,4.59,5.08,5.78,2.33,1.67,4.97,3.57,7.89,2.91,3.01-.67,4.66-3.67,4.96-4.27,2.74-5.42-.88-12.61-2.07-14.97l-.16-.31c-2.39-4.81-2.43-8.52,2.19-61.1,1.56-17.71,2.66-29.85,3.47-38.72,1.12-12.31,1.59-17.41,1.73-20.69.13-3.03.33-4.98.74-8.89.53-5.1.84-6.31,1.14-7.19.89-2.66,2.45-4.31,3.96-5.92.73-.78,1.42-1.51,2.04-2.35,1.56-2.13,2.88-3.91,3.98-5.41,4.98-6.75,5.75-7.78,6.36-10.07,1.55-5.8.07-11.19-1.48-16.9-.9-3.3-2.14-6.53-3.69-9.59-.09-.17-.02-.39.16-.48.18-.09.39-.02.48.16,1.57,3.11,2.82,6.38,3.74,9.72,1.58,5.8,3.08,11.29,1.48,17.27-.64,2.42-1.42,3.47-6.47,10.31-1.11,1.5-2.42,3.27-3.98,5.41-.64.87-1.38,1.66-2.09,2.42-1.45,1.55-2.96,3.15-3.8,5.66-.28.84-.58,2-1.1,6.98-.41,3.94-.61,5.89-.74,8.89-.14,3.3-.61,8.4-1.73,20.73-.81,8.86-1.91,21-3.47,38.71-4.6,52.39-4.58,56.07-2.26,60.72l.15.31c1.23,2.44,4.98,9.87,2.07,15.61-.46.9-2.2,3.92-5.44,4.64-.47.11-.92.15-1.37.15Z"/>
      <path class="cls-1" d="m345.78,652.33c-1.85,0-3.47-.72-4.44-1.27-2.99-1.7-4.7-4.89-6.11-11.38-1.11-5.09-1.15-8.17-1.21-11.75-.03-2.04-.06-4.15-.29-6.86-.61-7.33-2.13-12.65-4.44-20.71-1.63-5.69-2.72-8.32-3.6-10.43-.88-2.11-1.57-3.77-2.35-7.44-1.04-4.85-1.08-7.74-1.17-12.99-.05-2.74-.1-6.16-.32-10.84-.3-6.4-.8-12.89-1.48-19.29-.02-.2.12-.37.32-.39.2-.04.37.12.39.31.69,6.42,1.19,12.92,1.49,19.34.22,4.69.28,8.11.32,10.86.09,5.21.13,8.07,1.16,12.86.77,3.61,1.42,5.17,2.31,7.32.89,2.13,1.99,4.78,3.62,10.49,2.32,8.12,3.85,13.47,4.47,20.87.23,2.74.26,4.86.29,6.91.05,3.54.1,6.59,1.19,11.61,1.36,6.26,2.98,9.32,5.77,10.91,1.28.73,3.82,1.8,6.37.72,3.45-1.45,4.14-6.2,4.24-7.14.08-.71.08-1.43,0-2.15-.02-.2.12-.37.32-.39.19-.05.37.12.39.31.08.77.08,1.55,0,2.31-.11,1.01-.85,6.11-4.67,7.72-.87.37-1.74.51-2.56.51Z"/>
      <path class="cls-1" d="m340.78,650.36c-.18,0-.34-.14-.35-.32-.16-1.74-.16-3.51,0-5.26.13-1.52.39-3.03.75-4.51.05-.19.25-.31.43-.26.19.05.31.24.26.43-.36,1.44-.6,2.92-.73,4.4-.15,1.71-.15,3.44,0,5.14.02.19-.13.37-.32.38-.01,0-.02,0-.03,0Z"/>
      <path class="cls-1" d="m345.55,651.86c-.18,0-.33-.13-.35-.31-.13-.99-.21-2-.23-3-.05-1.76.07-3.55.34-5.31.03-.19.22-.35.41-.29.19.03.33.21.3.41-.26,1.71-.38,3.45-.33,5.18.02.97.1,1.96.23,2.93.02.19-.11.37-.31.4-.02,0-.03,0-.05,0Z"/>
      <path class="cls-1" d="m367.67,647.27s-.02,0-.03,0c-.19-.02-.34-.19-.32-.38.15-1.7.15-3.43,0-5.14-.13-1.47-.38-2.95-.73-4.4-.05-.19.07-.38.26-.43.19-.06.38.07.43.26.36,1.49.62,3.01.75,4.51.16,1.75.16,3.52,0,5.26-.02.19-.17.32-.35.32Z"/>
      <path class="cls-1" d="m362.89,648.77s-.03,0-.05,0c-.19-.02-.33-.2-.31-.4.12-.97.2-1.95.23-2.93.05-1.72-.07-3.46-.33-5.18-.03-.19.1-.38.3-.41.19-.05.37.1.41.29.27,1.76.39,3.55.34,5.31-.03,1-.11,2.01-.23,3-.02.18-.18.31-.35.31Z"/>
      <path class="cls-1" d="m336.72,477.48c-11.91,0-21.59-4.92-21.59-10.97s9.69-10.97,21.59-10.97,21.59,4.92,21.59,10.97-9.69,10.97-21.59,10.97Zm0-21.24c-11.51,0-20.88,4.6-20.88,10.26s9.37,10.26,20.88,10.26,20.88-4.6,20.88-10.26-9.37-10.26-20.88-10.26Z"/>
      <path class="cls-1" d="m358.93,454.79c-4.59,0-8.32-2.54-8.32-5.66s3.73-5.66,8.32-5.66,8.32,2.54,8.32,5.66-3.73,5.66-8.32,5.66Zm0-10.62c-4.19,0-7.61,2.22-7.61,4.95s3.41,4.95,7.61,4.95,7.61-2.22,7.61-4.95-3.41-4.95-7.61-4.95Z"/>
      <path class="cls-1" d="m294.38,653.33c-10.83,0-22.49-1.75-34.67-5.21-6.06-1.72-11.2-3.64-13.4-4.46-4.78-1.79-9.54-3.8-14.14-5.95-.18-.08-.25-.29-.17-.47.08-.18.3-.25.47-.17,4.58,2.15,9.32,4.15,14.09,5.93,2.19.82,7.31,2.73,13.34,4.45,12.11,3.44,23.71,5.19,34.47,5.19h.34c4.16-.01,10.44-.03,17.01-1.48l.6-.14c.87-.2,1.78-.41,3.13-.61,3.51-.54,5.64-.4,7.35-.31,1.64.1,2.83.17,4.47-.42,2.89-1.04,6.14-3.72,6.45-7.13.27-2.95-1.73-5.24-2.13-5.66-2.32-2.48-5.61-2.65-9.41-2.86-3.16-.17-5.67.23-8.84.74-2.41.39-3.76.74-4.74.99-1.17.3-1.95.5-3.48.5h-.02c-3.81,0-6.59-1.2-9.05-2.25-3.15-1.36-6.71-2.89-6.91-5.5-.03-.45.03-1.36.81-2.46,2.28-3.24,8.5-4.81,15.1-6.48,3.78-.96,7.69-1.95,11.06-3.3,5.34-2.13,10.3-5.61,14.73-10.31.13-.14.36-.15.5-.01.14.13.15.36.02.5-4.5,4.78-9.55,8.31-14.98,10.49-3.41,1.36-7.34,2.36-11.15,3.32-6.46,1.64-12.57,3.19-14.69,6.21-.67.96-.7,1.71-.68,2,.17,2.19,3.66,3.69,6.46,4.89,2.41,1.04,5.12,2.2,8.78,2.2h.02c1.45,0,2.15-.18,3.3-.48.99-.26,2.35-.61,4.79-1,3.22-.52,5.75-.92,8.99-.75,3.8.21,7.38.4,9.9,3.08.44.47,2.62,2.97,2.32,6.22-.34,3.72-3.83,6.61-6.92,7.73-1.78.64-3.1.57-4.76.46-1.67-.1-3.76-.22-7.2.3-1.33.2-2.22.41-3.08.6l-.61.14c-6.64,1.46-12.97,1.48-17.16,1.49h-.35Z"/>
      <path class="cls-1" d="m332.6,646.64c-.06,0-.12-.02-.18-.05-.46-.27-.94-.52-1.44-.72-2.2-.92-4.64-1.16-7.23-.72-.21.03-.38-.1-.41-.29-.03-.19.1-.37.29-.41,2.74-.47,5.3-.2,7.63.77.52.22,1.04.47,1.53.77.17.1.22.32.12.49-.07.11-.18.17-.31.17Z"/>
      <path class="cls-1" d="m333.83,642.86c-.06,0-.12-.02-.18-.05-.46-.27-.95-.52-1.44-.72-2.2-.92-4.63-1.16-7.23-.72-.2.02-.38-.1-.41-.29-.03-.19.1-.37.29-.41,2.73-.47,5.3-.2,7.63.77.52.22,1.04.47,1.53.77.17.1.22.32.12.49-.07.11-.18.17-.31.17Z"/>
      <path class="cls-1" d="m325.18,466.14c-.06,0-.11-.01-.16-.04-1.65-.85-3.38-1.59-5.15-2.21-2.5-.87-5.11-1.49-7.73-1.84-.19-.03-.33-.21-.31-.4s.21-.35.4-.31c2.67.36,5.32.99,7.87,1.88,1.8.63,3.57,1.38,5.24,2.25.17.09.24.31.15.48-.06.12-.19.19-.31.19Z"/>
      <path class="cls-1" d="m306.6,471.34c-.14,0-.27-.08-.33-.22-.07-.18.01-.39.19-.46,2.42-.99,4.94-1.75,7.49-2.25,2.7-.53,5.5-.8,8.24-.75.2,0,.35.16.35.36,0,.19-.16.35-.36.35-.17-.03-.33,0-.49,0-2.56,0-5.12.25-7.61.74-2.51.49-4.98,1.23-7.36,2.21-.04.02-.09.03-.13.03Z"/>
      <path class="cls-1" d="m348.81,467.27c-.13,0-.25-.07-.32-.19-.09-.17-.02-.39.15-.48,1.7-.87,3.46-1.63,5.25-2.25,2.55-.88,5.2-1.51,7.87-1.87.19-.05.37.11.4.31.03.19-.11.37-.31.4-2.62.35-5.22.97-7.73,1.84-1.75.61-3.49,1.35-5.15,2.21-.05.02-.11.04-.16.04Z"/>
      <path class="cls-1" d="m367.38,472.47s-.09,0-.13-.03c-2.37-.97-4.84-1.71-7.36-2.21-2.67-.53-5.39-.78-8.1-.74h0c-.19,0-.35-.16-.36-.35,0-.2.15-.36.35-.36,2.75-.05,5.52.22,8.24.75,2.57.51,5.09,1.26,7.49,2.25.18.07.27.28.19.46-.06.14-.19.22-.33.22Z"/>
      <path class="cls-1" d="m335.76,465.4c-.12,0-.19,0-.21,0-1.1-.07-1.87-.51-2.38-.79-1.73-.96-2.52-1.81-2.41-2.59h0c.22-1.51,3.73-1.91,5.57-1.79,1.39.09,3.77.45,4.04,1.77.14.7-.39,1.3-.81,1.78-1.33,1.49-3.19,1.62-3.81,1.62Zm-.16-4.48c-2.03,0-4.04.55-4.13,1.2h0c-.02.16.06.76,2.05,1.87.48.27,1.14.64,2.08.7.03,0,2.08.14,3.43-1.37.35-.39.73-.83.66-1.18-.14-.68-1.8-1.1-3.39-1.2-.23-.02-.46-.02-.7-.02Zm-4.48,1.15h0,0Z"/>
      <path class="cls-1" d="m335.7,469.51c-.2,0-.36-.16-.36-.36v-4.12c0-.2.16-.36.36-.36s.36.16.36.36v4.12c0,.2-.16.36-.36.36Z"/>
      <path class="cls-1" d="m333.42,471.34h-.09c-1.34-.05-2.45-1.15-2.57-2.55-.02-.19.13-.37.32-.39.24,0,.37.13.39.32.09,1.03.92,1.86,1.89,1.9.02,0,.04,0,.06,0,.77,0,1.5-.51,1.82-1.27.07-.18.28-.27.47-.19.18.08.26.29.19.47-.44,1.03-1.42,1.7-2.48,1.7Z"/>
      <path class="cls-1" d="m337.97,471.17c-1.06,0-2.05-.67-2.48-1.7-.08-.18,0-.39.19-.47.19-.08.39,0,.47.19.32.77,1.05,1.27,1.82,1.27h.06c.97-.04,1.8-.88,1.89-1.91.02-.2.2-.32.38-.32.2.02.34.19.32.39-.12,1.4-1.23,2.5-2.57,2.56h-.09Z"/>
      <path class="cls-1" d="m444.77,653.37c-.31,0-.58-.02-.78-.04-9.95-1.14-15.86-25.25-17.4-41.17-.47-4.83-1-10.32,0-17.17.71-4.84,2.31-11.36,3.72-17.12.29-1.19.52-2.11.65-2.62l.09-.35c.12-.47.17-2.41.25-5.08.27-9.46.83-29.16,5.57-43.15,1.66-4.92,4.41-10.72,7.75-16.34,2.36-3.98,3.65-6.18,5.97-8.86,4.93-5.72,10.6-9.22,17.17-13.27.75-.46,1.42-.87,2.06-1.25,3.8-2.29,6.09-3.67,7.66-6.76,1.4-2.74,1.75-5.91,1.83-6.81.25-3.02-.26-5.46-.58-6.65-.8-2.92-2.07-4.74-3.54-6.84l-.47-.68c-2.73-3.93-5.5-8.58-6.89-11.57-3.36-7.22-2.9-14.2-2.7-17.17.53-7.93,3.37-14.11,5.66-17.89.1-.17.32-.22.49-.12.17.1.22.32.12.49-2.25,3.72-5.04,9.78-5.56,17.57-.19,2.92-.65,9.77,2.63,16.83,1.38,2.96,4.12,7.57,6.83,11.47l.47.67c1.45,2.07,2.82,4.02,3.65,7.06.58,2.13.8,4.58.6,6.9-.08.94-.45,4.22-1.9,7.08-1.67,3.27-4.16,4.77-7.93,7.04-.64.38-1.31.79-2.03,1.23-6.54,4.03-12.17,7.51-17.03,13.15-2.27,2.63-3.56,4.81-5.89,8.76-3.31,5.58-6.04,11.34-7.68,16.21-4.71,13.89-5.27,33.51-5.53,42.94-.08,2.92-.13,4.69-.27,5.24l-.09.35c-.13.51-.36,1.43-.65,2.62-1.41,5.74-3.01,12.25-3.71,17.05-.99,6.77-.46,12.21,0,17,1.46,15.1,7.3,39.45,16.77,40.53.32.03.82.06,1.41,0,.19-.04.37.12.39.31.02.19-.12.37-.31.39-.28.03-.54.04-.78.04Z"/>
      <path class="cls-1" d="m562.65,551.57c-1.02,0-4.89-.2-7.46-3.1-1.71-1.93-1.64-3.62-1.5-7,.08-2.06.2-4.88-.07-8.81-.12-1.68-.28-3.19-.42-4.52-.46-4.31-.77-7.16,1.27-9.13.81-.78,1.87-1.32,3.15-1.58.19-.04.38.08.42.27s-.08.38-.28.42c-1.14.24-2.08.7-2.8,1.39-1.79,1.73-1.51,4.29-1.06,8.54.14,1.34.31,2.85.42,4.55.28,3.98.16,6.82.07,8.89-.14,3.29-.2,4.78,1.32,6.5,2.75,3.09,7.1,2.86,7.14,2.85,4.24-.23,6.93-3.6,7.9-5.04.48-.72,1.94-2.89,1.43-13.9-.4-8.58-.66-12.43-2.81-13.83-.74-.48-1.86-.91-3.33-1.28-.19-.05-.31-.24-.26-.43.05-.19.25-.32.43-.26,1.55.38,2.75.84,3.55,1.37,2.54,1.66,2.75,6.19,3.13,14.39.47,10.08-.66,13-1.55,14.33-1.02,1.53-3.89,5.11-8.45,5.36,0,0-.1,0-.25,0Z"/>
      <path class="cls-1" d="m567.04,516.85c-.1,0-.21,0-.31,0-.2,0-.35-.17-.34-.37,0-.19.2-.33.37-.34,1.05.06,1.93-.16,2.61-.62.99-.67,1.69-1.93,2.01-3.67.77-4.1-.66-9.93-3.39-13.86-1.01-1.45-2.08-2.48-4.02-4.35-2.36-2.27-4.1-3.53-5.95-4.87-.54-.39-1.08-.78-1.65-1.2-6.33-4.76-10.51-7.89-11.99-13.06-1.15-4.05-.19-7.64.17-9,.83-3.13,2.13-4.71,3.63-6.53.81-.99,1.65-2.01,2.51-3.39,4.29-6.89,5.9-17.98,3.65-25.26-.07-.23-1.66-5.58-1.03-9.81.4-2.64,1.26-4.51,1.78-5.62.1-.22,6.96-15.14,8.18-29.36.21-2.46-.18-3.19-.54-3.36-.56-.27-1.68.62-3.22,1.85-.68.55-1.46,1.17-2.36,1.83-1.91,1.4-3.92,2.66-5.99,3.74-.17.09-.39.02-.48-.15-.09-.17-.02-.39.15-.48,2.04-1.07,4.02-2.31,5.9-3.69.89-.65,1.66-1.27,2.33-1.81,1.88-1.5,3.02-2.4,3.97-1.93,1.09.53,1.08,2.45.94,4.06-1.23,14.35-8.14,29.38-8.21,29.53-.53,1.15-1.37,2.95-1.75,5.49-.61,4.07.99,9.45,1.01,9.5,2.3,7.45.66,18.81-3.73,25.85-.89,1.42-1.74,2.46-2.57,3.47-1.45,1.76-2.7,3.29-3.49,6.27-.35,1.3-1.27,4.76-.17,8.62,1.41,4.94,5.29,7.85,11.72,12.68.57.43,1.11.82,1.65,1.21,1.79,1.29,3.63,2.62,6.02,4.93,1.97,1.9,3.06,2.95,4.11,4.46,2.83,4.07,4.31,10.13,3.51,14.4-.36,1.92-1.16,3.35-2.31,4.12-.74.49-1.65.74-2.72.74Z"/>
      <path class="cls-1" d="m478.2,636.24h0c-.2,0-.35-.16-.35-.36.1-8.85.35-17.85.74-26.75.29-6.47.64-14.53,1.49-25.27.2-2.54.41-5,.62-7.51.55-6.49,1.12-13.2,1.61-22.2.17-3.09.51-9.51-.74-17.76-.37-2.46-.87-4.95-1.48-7.39-.05-.19.07-.38.26-.43.19-.06.38.07.43.26.61,2.47,1.12,4.98,1.49,7.46,1.26,8.31.92,14.79.75,17.9-.49,9.01-1.06,15.72-1.61,22.22-.21,2.51-.42,4.97-.62,7.51-.84,10.72-1.2,18.77-1.48,25.25-.4,8.9-.65,17.89-.74,26.73,0,.2-.16.35-.36.35Z"/>
      <path class="cls-1" d="m493.8,634.02h-.02c-.2-.01-.35-.18-.34-.37l2.97-61.65c.01-.2.17-.33.37-.34.2.01.35.18.34.37l-2.97,61.65c0,.19-.17.34-.36.34Z"/>
      <path class="cls-1" d="m469.28,636.24s-.05,0-.07,0c-.19-.04-.31-.23-.27-.42,2.08-9.73,2.57-19.44,1.48-28.85-.35-2.96-1.61-10.76-5.91-19.2-3.14-6.17-5.32-7.49-7.2-7.99-3.5-.94-6.9.96-8.62,2.17-.16.12-.38.08-.5-.08-.11-.16-.07-.38.08-.49,1.82-1.29,5.43-3.29,9.21-2.28,2.05.54,4.39,1.93,7.65,8.35,4.35,8.54,5.63,16.44,5.98,19.43,1.1,9.5.6,19.28-1.49,29.09-.03.17-.18.28-.35.28Z"/>
      <path class="cls-1" d="m556.19,549.33c-.06,0-.11-.01-.16-.04-.17-.09-.24-.31-.15-.48.96-1.86,1.7-3.83,2.2-5.86.41-1.68.66-3.41.73-5.13,0-.19.18-.35.37-.34.2,0,.35.17.34.37-.08,1.77-.33,3.54-.75,5.26-.51,2.09-1.27,4.12-2.26,6.02-.06.12-.19.19-.31.19Z"/>
      <path class="cls-1" d="m562.14,551.56s-.09,0-.14-.03c-.18-.08-.26-.29-.19-.47.61-1.42,1.1-2.89,1.47-4.4.57-2.39.82-4.85.73-7.33,0-.2.15-.36.34-.37.19.02.36.15.37.34.09,2.54-.16,5.08-.75,7.53-.37,1.54-.88,3.06-1.5,4.51-.06.13-.19.21-.33.21Z"/>
      <path class="cls-1" d="m568.82,548.59s-.06,0-.08-.01c-.19-.04-.31-.24-.26-.43.35-1.44.6-2.92.73-4.41.18-1.95.18-3.93,0-5.87-.02-.19.12-.37.32-.39.18-.06.37.12.39.32.19,1.99.19,4.01,0,6.01-.14,1.52-.4,3.04-.75,4.51-.04.16-.18.27-.35.27Z"/>
      <path class="cls-1" d="m512.26,458.89c-.66,0-1.33-.02-2.01-.06-6.18-.39-11.61-2.46-14.16-5.41-1.06-1.22-1.57-2.56-1.46-3.88.36-4.55,7.93-7.79,16.91-7.23,6.18.39,11.6,2.46,14.16,5.4,1.06,1.22,1.57,2.56,1.46,3.88-.33,4.2-6.84,7.29-14.9,7.29Zm-2.78-15.92c-7.68,0-13.84,2.8-14.14,6.64-.09,1.13.35,2.26,1.29,3.35,2.4,2.76,7.77,4.79,13.67,5.16,8.57.56,15.83-2.41,16.16-6.58h0c.09-1.13-.35-2.26-1.29-3.35-2.4-2.76-7.77-4.79-13.67-5.16-.68-.04-1.35-.06-2.01-.06Z"/>
      <path class="cls-1" d="m499.87,449.96c-.06,0-.13-.02-.18-.05-1.23-.75-2.52-1.41-3.84-1.97-1.86-.8-3.83-1.41-5.84-1.83-.19-.04-.31-.23-.28-.42s.22-.32.42-.27c2.06.43,4.07,1.06,5.97,1.87,1.34.58,2.67,1.26,3.93,2.02.17.1.22.32.12.49-.07.11-.18.17-.3.17Z"/>
      <path class="cls-1" d="m485.29,452.97c-.15,0-.29-.09-.34-.24-.06-.19.04-.39.23-.45,1.92-.63,3.91-1.08,5.91-1.33,2.13-.26,4.29-.3,6.4-.13.2.02.34.19.32.39-.02.19-.17.32-.38.32-2.08-.17-4.18-.13-6.26.13-1.95.24-3.89.68-5.77,1.3-.04.01-.07.02-.11.02Z"/>
      <path class="cls-1" d="m518.01,452.11c-.14,0-.27-.08-.33-.21-.08-.18,0-.39.19-.47,1.34-.58,2.75-1.07,4.17-1.45,2.01-.54,4.08-.89,6.18-1.02.18-.02.36.14.38.33.01.19-.14.36-.33.38-2.04.13-4.07.47-6.03,1-1.39.37-2.77.85-4.08,1.42-.05.02-.09.03-.14.03Z"/>
      <path class="cls-1" d="m532.02,457.12s-.07,0-.1-.02c-1.8-.55-3.69-1.02-5.61-1.37-2.04-.38-4.14-.63-6.23-.76-.2-.01-.34-.18-.33-.38.01-.19.2-.32.38-.33,2.12.13,4.24.39,6.31.77,1.95.36,3.86.83,5.69,1.39.19.06.29.26.24.44-.05.15-.19.25-.34.25Z"/>
      <path class="cls-1" d="m509.51,449.9c-.27,0-.45-.02-.45-.03-.85-.11-1.43-.49-1.81-.74-.84-.55-1.93-1.37-1.75-2.21.28-1.27,3.2-1.32,4.48-1.14,1.1.16,2.94.58,3.08,1.65.08.6-.41,1.06-.76,1.4-.95.92-2.15,1.07-2.79,1.07Zm-.75-3.49c-1.34,0-2.49.31-2.57.66h0c-.02.08-.03.51,1.44,1.47.35.23.83.54,1.53.64.02,0,1.55.22,2.64-.85.26-.25.58-.56.55-.8-.06-.41-1.07-.84-2.46-1.04-.38-.05-.76-.07-1.13-.07Zm-2.91.59h0,0Z"/>
      <path class="cls-1" d="m509.03,453.05h-.02c-.2-.01-.34-.18-.33-.38l.2-2.87c.01-.19.17-.33.38-.33.2.01.34.18.33.38l-.2,2.87c-.01.19-.17.33-.35.33Z"/>
      <path class="cls-1" d="m492.4,442.43c-.5,0-1-.04-1.51-.14-4.55-.81-7.86-5.14-7.39-9.64.23-2.16,1.28-4.05,2.97-5.32,1.74-1.31,3.94-1.8,6.18-1.41,4.55.81,7.86,5.14,7.39,9.64-.23,2.16-1.28,4.05-2.97,5.33-1.35,1.01-2.97,1.54-4.67,1.54Zm-1.24-15.93c-1.56,0-3.03.48-4.26,1.4-1.53,1.15-2.49,2.87-2.69,4.83-.43,4.14,2.62,8.12,6.81,8.87,2.05.37,4.05-.09,5.63-1.28,1.53-1.15,2.49-2.87,2.69-4.83h0c.43-4.14-2.62-8.12-6.81-8.87-.46-.08-.92-.12-1.37-.12Z"/>
      <path class="cls-1" d="m401.04,299.79c-.46,0-.85-.08-1.15-.14-1.05-.22-2.43-.6-2.58-1.49h0c-.2-1.23,2.26-2.43,3.98-2.85,1.14-.28,3.11-.58,3.68.42.3.55.02,1.17-.2,1.66-.82,1.82-2.78,2.28-2.8,2.28-.33.08-.64.11-.93.11Zm-3.03-1.74c.02.12.22.53,2,.9.45.09,1.05.22,1.79.04.02,0,1.64-.41,2.31-1.88.17-.37.36-.8.23-1.03-.22-.39-1.44-.42-2.88-.07-1.87.46-3.53,1.54-3.44,2.05h0Z"/>
      <path class="cls-1" d="m403.04,302.86c-.15,0-.29-.1-.34-.25l-.92-2.92c-.06-.19.04-.39.23-.44.2-.05.39.05.45.23l.92,2.92c.06.19-.04.39-.23.44-.04.01-.07.02-.11.02Z"/>
      <path class="cls-1" d="m401.13,304.96c-.91,0-1.77-.57-2.15-1.48-.07-.18.01-.39.19-.46.18-.07.39.01.46.19.31.76,1.14,1.17,1.88.99.6-.17,1.06-.73,1.12-1.41.02-.19.18-.39.39-.32.2.02.34.19.32.39-.09.97-.75,1.78-1.64,2.02-.19.05-.38.08-.57.08Z"/>
      <path class="cls-1" d="m404.65,303.71c-.66,0-1.33-.3-1.79-.84-.13-.15-.11-.37.04-.5.15-.13.37-.11.5.04.44.52,1.14.73,1.72.51.72-.26,1.15-1.08.97-1.88-.04-.19.08-.38.27-.42.2-.04.38.08.42.27.26,1.16-.36,2.33-1.43,2.71-.23.08-.47.12-.71.12Z"/>
      <path class="cls-1" d="m516.41,340.71c-9.51,0-20.92-4.07-25.9-13.67-1.2-2.3-1.96-4.84-2.27-7.55-.02-.19.12-.37.31-.39.21-.05.37.12.39.31.3,2.62,1.04,5.08,2.19,7.3,5.08,9.77,17.88,14.05,27.88,13.18,10.24-.87,17.28-6.82,20.57-10.29.14-.14.36-.15.5-.01.14.14.15.36.01.5-3.36,3.54-10.56,9.62-21.03,10.51-.87.07-1.76.11-2.67.11Z"/>
      <path class="cls-1" d="m772.9,665.23c-.22,0-.4,0-.53-.01-14-.64-28.23-.41-41.99-.2-8.4.13-17.08.26-25.62.2-.41,0-1.64-.01-2.48-.85-1.82-1.81-.73-6.44,1.45-9.38,1.62-2.19,5.44-3.98,11.35-5.34,4.81-1.1,9.85-1.59,14.94-1.49.2,0,.35.17.35.36,0,.19-.16.35-.36.35h0c-5.04-.08-10.01.39-14.77,1.48-3.94.9-9.04,2.51-10.94,5.06-1.93,2.6-3.04,6.94-1.52,8.45.63.63,1.6.64,1.97.64,8.55.06,17.22-.07,25.62-.2,13.77-.21,28.01-.43,42,.2.58.03,2.06.09,3.53-.7,3.97-2.14,4.25-8.62,4.27-9.35.11-4.26-1.6-7.58-2.16-8.68-2.02-3.94-2.32-5.81-2.93-9.55-.65-3.95-1.62-9.91-5.3-22.52-1.33-4.58-2.27-7.44-3.02-9.73-1.06-3.23-1.82-5.56-2.93-10.34-1.66-7.17-2.67-11.49-2.98-17.15-.39-6.93.54-10.97,1.61-15.65.77-3.36,1.64-7.17,2.1-12.63.86-10.24-.44-18.11-1.48-24.42-2.95-17.9-9.01-29.1-11.81-32.52-3.68-4.5-5.5-6.73-6.59-7.34l-.14-.08c-.82-.46-2.35-1.32-2.27-2.48.07-.96,1.2-1.54,1.63-1.75,1.89-.97,3.71-3.59,7.34-8.81.54-.78,13.05-19.15,6.64-41.31-3.5-12.1-10.35-19.51-15.48-23.59-7.37-5.87-15.55-9.1-24.31-9.58-8.56-.46-15.21,1.9-17.67,2.94-10.25,4.33-17.93,12.76-22.84,25.06-4.48,11.22-3.55,21.27-2.95,25.07,1.63,10.26,5.96,18.92,12.52,25.05,11.21,10.47,22.02,13.26,22.13,13.29.28.07.57.14.88.21,3.06.73,7.24,1.72,9.01,5.17,1.05,2.05,1.06,4.65.02,7.7-.06.19-.26.29-.45.22-.19-.06-.29-.26-.22-.45.97-2.87.98-5.27.02-7.15-1.62-3.16-5.62-4.11-8.54-4.8-.31-.07-.6-.14-.88-.21-.11-.03-11.09-2.86-22.44-13.46-6.68-6.24-11.08-15.04-12.74-25.46-.61-3.86-1.55-14.06,2.99-25.44,6.2-15.55,16.05-22.42,23.22-25.45,2.51-1.06,9.29-3.46,17.99-3,8.91.49,17.23,3.77,24.71,9.73,5.21,4.15,12.17,11.67,15.72,23.95,6.5,22.49-6.19,41.12-6.74,41.9-3.71,5.33-5.56,8.01-7.56,9.03-.35.18-1.26.64-1.29,1.19-.05.72,1.32,1.49,1.91,1.82l.14.08c1.2.68,3.05,2.95,6.75,7.47,2.87,3.51,9.02,14.84,11.99,32.89,1.05,6.36,2.35,14.27,1.49,24.6-.46,5.51-1.34,9.34-2.12,12.73-1.06,4.63-1.98,8.62-1.6,15.45.31,5.59,1.31,9.9,2.96,17.02,1.1,4.75,1.86,7.07,2.91,10.28.75,2.3,1.69,5.16,3.03,9.76,3.69,12.66,4.67,18.64,5.31,22.6.6,3.66.9,5.5,2.83,9.28.61,1.2,2.38,4.64,2.27,9.08-.03,1.26-.41,7.68-4.64,9.96-1.29.69-2.56.8-3.34.8Z"/>
      <path class="cls-1" d="m718.87,501.05c-.12,0-.25-.07-.31-.19-.09-.17-.03-.39.14-.48,2.25-1.22,5.47-3.49,8.05-7.32,2.6-3.86,3.41-7.61,3.66-9.5.59-4.48-.47-7.77-2.21-13.22-1.43-4.47-3.22-7.96-5.17-10.07-1.05-1.14-2.29-2.22-3.61-3.12-2.32-1.59-4.22-2.22-5.75-2.73-1.73-.57-3.1-1.03-4.02-2.58-1.07-1.8-1.07-4.39,0-6.29,1.05-1.89,2.96-2.72,3.87-3.12,1.37-.59,2.53-.72,3.08-.77.82-.09,2.99-.3,5.38.77.62.28,2.52,1.12,3.86,3.1,1.07,1.57,1.26,3.08,1.54,5.36.19,1.55.36,2.89,0,4.58-.42,1.94-1.47,3.78-3.02,5.33,1.69,2.21,3.23,5.41,4.5,9.35,1.78,5.54,2.85,8.89,2.24,13.53-.26,1.95-1.09,5.82-3.77,9.81-2.66,3.95-5.98,6.28-8.3,7.54-.05.03-.11.04-.17.04Zm-.92-58.76c-.54,0-.97.04-1.27.07-.56.06-1.61.17-2.86.72-.85.37-2.61,1.14-3.54,2.82-.95,1.7-.95,3.99,0,5.59.78,1.33,1.92,1.7,3.63,2.27,1.57.52,3.52,1.17,5.92,2.82,1.36.94,2.65,2.05,3.73,3.22.13.14.25.28.38.43,1.02-1.03,2.29-2.69,2.77-4.92.34-1.57.18-2.85,0-4.34-.28-2.26-.46-3.62-1.43-5.04-1.23-1.81-2.93-2.56-3.56-2.85-1.44-.64-2.77-.79-3.75-.79Z"/>
      <path class="cls-1" d="m728.53,664.47c-.13,0-.26-.08-.32-.21-.57-1.27-.83-2.57-.78-3.88.17-3.61,2.73-5.94,3.83-6.93,3.08-2.79,6.63-3.47,8.34-3.8,2.01-.38,3.64-.39,4.95-.4,1.85,0,2.96-.01,3.76-.97.7-.84.69-1.86.66-3.42-.03-1.77,0-3.5.02-5.18.03-2.22.06-4.51-.02-6.76-.08-2.37-.08-4.23-.08-5.74,0-3.77.01-5.18-1.32-6.67-1.28-1.43-2.9-1.93-3.51-2.11-1.09-.33-9.28-5.29-27.22-16.16l-.39-.24c-9.99-6.05-19.77-16.33-29.08-30.56-.11-.16-.06-.38.1-.49.16-.11.38-.06.49.1,9.25,14.14,18.96,24.35,28.86,30.35l.39.23c16.8,10.17,26.06,15.77,27.02,16.07.71.21,2.47.75,3.88,2.33,1.51,1.7,1.51,3.29,1.5,7.14,0,1.5,0,3.36.08,5.71.08,2.27.05,4.57.02,6.8-.02,1.67-.05,3.4-.02,5.1.02,1.71.04,2.91-.83,3.95-1.01,1.2-2.39,1.21-4.3,1.22-1.28,0-2.87.01-4.82.39-1.64.32-5.07.97-8,3.63-1.03.93-3.44,3.12-3.6,6.44-.05,1.19.18,2.39.71,3.55.08.18,0,.39-.18.47-.05.02-.1.03-.15.03Z"/>
      <path class="cls-1" d="m744.49,650.01c-.2,0-.36-.16-.36-.36v-31.85c0-.2.16-.36.36-.36s.36.16.36.36v31.85c0,.2-.16.36-.36.36Z"/>
      <path class="cls-1" d="m723.25,650.01c-.2,0-.36-.16-.36-.36v-21.24c0-.2.16-.36.36-.36s.36.16.36.36v21.24c0,.2-.16.36-.36.36Z"/>
      <path class="cls-1" d="m660.51,666.7c-.27,0-.53,0-.78,0h-.29c-205.08-.64-205.81-.67-207.26-.74-1-.05-4.01-.2-6.18-2.33-2.02-1.99-2.33-4.73-2.33-6.19,0-2.99,1.44-5.88,3.85-7.72,1.03-.78,2.24-1.27,3.08-1.54,3.77-1.23,7.15-.55,9.39-.1l.45.09c2.49.49,5.11.52,7.63.55,1.63.02,3.31.04,4.96.18,11.29.98,24.11-.95,32.6-2.23,4.17-.62,15.42-2.52,29.67-6.67,12.61-3.67,25.09-8.42,37.09-14.09.18-.08.39,0,.47.17.08.18,0,.39-.17.47-12.04,5.69-24.55,10.45-37.19,14.13-14.29,4.17-25.57,6.07-29.76,6.7-8.52,1.28-21.4,3.21-32.77,2.23-1.62-.14-3.29-.16-4.9-.18-2.56-.03-5.2-.06-7.76-.57l-.45-.09c-2.16-.44-5.43-1.1-9.03.08-.78.26-1.91.71-2.87,1.43-2.21,1.68-3.58,4.42-3.57,7.15,0,1.35.28,3.88,2.12,5.69,1.97,1.94,4.78,2.08,5.7,2.13,1.45.07,2.18.11,207.24.74h.29c3.21.04,9.21.03,16.69-2.22,7.29-2.19,16.53-9.56,33.31-22.96.1-.08,9.86-7.92,15.53-16.27,2.19-3.23,3.67-6.59,3.68-6.63.93-2.14,1.67-4.37,2.21-6.62.05-.19.23-.3.43-.27.19.05.31.24.26.43-.54,2.3-1.3,4.57-2.25,6.75-.02.03-1.52,3.46-3.75,6.74-5.73,8.44-15.57,16.34-15.67,16.42-16.85,13.45-26.13,20.86-33.55,23.09-7.01,2.11-12.73,2.25-16.12,2.25Z"/>
      <path class="cls-1" d="m710.7,665.21c-.14,0-.27-.08-.33-.22-1.02-2.44-.71-5.14.79-7.04,1.27-1.61,3-2.17,3.92-2.36.2-.04.38.08.42.27.04.19-.08.38-.28.42-.83.17-2.38.67-3.51,2.1-1.34,1.7-1.61,4.13-.7,6.33.08.18,0,.39-.19.46-.04.02-.09.03-.14.03Z"/>
      <path class="cls-1" d="m719.83,664.82c-.14,0-.27-.08-.33-.22-1.02-2.44-.71-5.14.79-7.04,1.27-1.61,3-2.17,3.92-2.36.2-.04.38.08.42.27.04.19-.08.38-.28.42-.82.17-2.38.67-3.51,2.1-1.34,1.7-1.61,4.13-.69,6.33.08.18,0,.39-.19.46-.04.02-.09.03-.14.03Z"/>
      <path class="cls-1" d="m736.91,664.82c-.14,0-.27-.08-.33-.22-1.02-2.44-.71-5.14.79-7.04,1.27-1.61,3-2.17,3.92-2.36.2-.04.38.08.42.27s-.08.38-.28.42c-.82.17-2.38.67-3.51,2.1-1.34,1.7-1.61,4.13-.69,6.33.08.18,0,.39-.19.46-.04.02-.09.03-.14.03Z"/>
      <path class="cls-1" d="m748.8,664.82c-.14,0-.27-.08-.33-.22-1.02-2.44-.71-5.14.79-7.04,1.27-1.61,3-2.17,3.92-2.36.2-.04.38.08.42.27.04.19-.08.38-.28.42-.82.17-2.38.67-3.51,2.1-1.34,1.7-1.61,4.13-.7,6.33.08.18,0,.39-.19.46-.04.02-.09.03-.14.03Z"/>
      <path class="cls-1" d="m680.24,466.14c-.18,0-.33-.13-.35-.31-.39-3.32-.13-6.61.75-9.79.66-2.39,1.68-4.67,3.01-6.78.1-.17.33-.22.49-.11.17.11.22.32.11.49-1.3,2.05-2.28,4.27-2.93,6.59-.86,3.09-1.11,6.3-.73,9.52.02.19-.12.37-.31.39-.01,0-.03,0-.04,0Z"/>
      <path class="cls-1" d="m673.93,440.51s-.1,0-.14-.03c-.18-.08-.26-.29-.18-.47,1.48-3.39,4.39-8.09,9.8-11.3,1.73-1.03,4.58-2.38,8.29-3.02,2.75-.47,5.54-.47,8.29,0,.19.03.32.22.29.41-.03.19-.23.31-.41.29-2.67-.46-5.38-.46-8.05,0-3.61.62-6.37,1.93-8.05,2.93-5.25,3.12-8.07,7.69-9.51,10.98-.06.13-.19.21-.32.21Z"/>
      <path class="cls-1" d="m724.81,413.4c-.11,0-.22-.05-.29-.15-1.95-2.83-5.43-6.65-10.98-8.79-6.31-2.43-11.95-1.28-14.66-.73-4.23.86-8.19,2.59-11.75,5.14-.16.11-.38.07-.5-.08-.11-.16-.08-.38.08-.49,3.65-2.61,7.69-4.38,12.02-5.26,2.78-.57,8.56-1.75,15.05.76,5.72,2.2,9.31,6.13,11.31,9.04.11.16.07.38-.09.49-.06.04-.13.06-.2.06Z"/>
      <path class="cls-1" d="m719.61,495.11h-.03c-.2-.02-.34-.19-.33-.38.11-1.46.11-2.94,0-4.41-.18-2.4-.68-4.94-1.47-7.34-.58-1.77-1.32-3.5-2.2-5.14-.09-.17-.03-.39.14-.48.17-.09.39-.03.48.14.91,1.68,1.66,3.45,2.25,5.26.8,2.46,1.32,5.06,1.5,7.51.11,1.5.11,3.02,0,4.51-.01.19-.17.33-.35.33Z"/>
      <path class="cls-1" d="m609.73,602.21c-.52,0-1.05-.04-1.6-.14-3.41-.6-5.45-2.89-6.17-3.85-1.29-1.73-2.51-4.67-1.45-5.67.47-.45,1.09-.3,1.81-.13.75.18,1.68.4,2.78.05.44-.14,1.14-.44,2.08-1.4,7.33-7.41,11.03-16.14,11.07-16.23,4.03-9.62,4.78-16.4,5.82-25.79l.1-.86c.34-3.07.51-6.27-1.41-8.65-1.16-1.44-2.43-1.78-4.71-2.39-1.08-.29-2.42-.65-4.04-1.22-3.74-1.31-5.45-2.48-7.11-3.61-1.57-1.07-3.06-2.09-6.25-3.07-4.03-1.25-8.19-2.53-12.38-.75-3.65,1.55-6.28,5.02-8.03,7.31-.49.64-.78,1.33-1.07,2-.46,1.08-.9,2.1-2.05,2.58-1.22.5-2.71.3-4.45-.59-.17-.09-.24-.31-.15-.48.09-.17.31-.23.48-.15,1.53.79,2.83.99,3.85.57.88-.36,1.23-1.18,1.67-2.2.29-.67.62-1.44,1.16-2.14,1.79-2.36,4.5-5.92,8.31-7.54,4.43-1.88,8.72-.55,12.87.73,3.29,1.02,4.82,2.06,6.44,3.17s3.29,2.24,6.94,3.52c1.6.56,2.87.9,3.99,1.2,2.35.63,3.78,1.01,5.08,2.63,2.1,2.59,1.92,5.95,1.56,9.17l-.09.86c-1.05,9.45-1.81,16.27-5.87,25.98-.04.09-3.8,8.95-11.22,16.45-1.05,1.07-1.86,1.41-2.37,1.57-1.29.41-2.37.16-3.16-.03-.62-.14-.98-.22-1.16-.05-.58.55.19,2.94,1.53,4.73.67.89,2.56,3.02,5.72,3.58,4.12.71,7.4-1.78,8.61-2.89,3.57-3.26,4.11-8.05,4.33-10.09.98-8.74,2.4-12.67,4.04-17.21,1.92-5.33,4.11-11.38,6.38-26.71l.04-.25c.58-3.95,1.66-11.29,6.71-18.48,1.12-1.6,2.38-3.11,3.75-4.5.14-.14.36-.14.5,0,.14.14.14.36,0,.5-1.34,1.36-2.58,2.85-3.68,4.41-4.95,7.05-6.02,14.28-6.59,18.17l-.04.25c-2.28,15.41-4.47,21.49-6.41,26.85-1.62,4.5-3.03,8.39-3.99,16.96-.25,2.21-.8,7.18-4.57,10.62-1.13,1.03-3.95,3.2-7.61,3.2Z"/>
      <path class="cls-1" d="m453.68,648.13c-.14,0-.27-.08-.33-.22-.52-1.24-.78-2.54-.77-3.85.02-3.19,1.28-5.13,2.33-6.19,1.58-1.6,3.41-2.03,4.62-2.32,1.9-.46,3.3-.31,5.86-.04l.22.02s3.73.39,7.42.74c5.07.48,9.13.16,11.08,0,1.37-.11,4.09-.56,9.63-1.48,7.53-1.25,9.04-1.58,11.1-2.22,5.08-1.58,6.85-3.02,8.01-4.35,1.19-1.36,1.78-2.72,2.17-3.62.63-1.45,1.42-3.25.79-4.1-.4-.54-1.28-.57-1.86-.6h-.1c-3.74-.16-7.24-1.74-9.1-3.04-3.08-2.15-4.17-5.16-5.33-8.34-1.05-2.9-1.2-5.19-1.51-9.75-.3-4.51-.46-6.99.83-8.43.56-.62,1.16-.95,1.86-1.33.85-.46,1.92-1.04,3.36-2.41,1.08-1.02,1.32-1.51,1.38-2.01.17-1.48-1.44-2.84-2.04-3.35-.94-.8-3-4.29-7.52-11.94l-.05-.09c-4.67-7.92-6.11-15.46-6.73-18.69-1.26-6.57-1.95-10.19.04-13.61,1.7-2.92,5.38-4.31,12.07-6.84,8.27-3.13,13.76-4.1,20.12-5.22,6.98-1.23,10.81-1.42,13.65.81.48.38,2.86,2.37,2.35,4.1-.19.65-.68.94-1.74,1.58-.37.22-.83.5-1.38.85-1.31.84-2.38,1.52-2.72,1.85.51.12,2.08,0,3.61-.12,4.03-.3,10.78-.81,18.29.59l.65.12c.19.04.32.22.29.41-.04.19-.21.3-.41.29l-.65-.12c-7.42-1.38-14.11-.88-18.11-.58-3.17.24-4.35.32-4.46-.47-.07-.53.6-.96,3.12-2.57.57-.36,1.03-.64,1.41-.87,1.02-.61,1.31-.8,1.42-1.17.31-1.07-1.24-2.65-2.11-3.34-2.63-2.07-6.32-1.86-13.09-.67-6.32,1.12-11.78,2.08-19.99,5.18-7.03,2.65-10.19,3.93-11.71,6.53-1.86,3.2-1.22,6.52.04,13.12.61,3.19,2.04,10.65,6.64,18.46l.05.09c4.2,7.12,6.51,11.04,7.3,11.71.75.63,2.56,2.17,2.35,4.03-.09.77-.51,1.41-1.59,2.45-1.51,1.43-2.62,2.03-3.51,2.52-.67.36-1.2.65-1.67,1.17-1.05,1.17-.96,3.27-.65,7.91.3,4.5.45,6.75,1.47,9.56,1.12,3.07,2.17,5.98,5.07,8,1.92,1.34,5.37,2.76,8.73,2.91h.1c.67.03,1.79.08,2.4.89.88,1.19.04,3.11-.7,4.81-.41.94-1.03,2.36-2.29,3.81-1.22,1.41-3.08,2.93-8.33,4.56-2.08.65-3.45.95-11.19,2.24-5.55.93-8.29,1.38-9.69,1.49-1.97.16-6.07.49-11.2,0-3.7-.35-7.43-.74-7.43-.74l-.22-.02c-2.56-.27-3.84-.41-5.61.02-1.21.29-2.85.68-4.29,2.13-.96.97-2.1,2.74-2.13,5.69,0,1.22.23,2.42.71,3.58.08.18,0,.39-.19.46-.05.02-.09.03-.14.03Z"/>
      <path class="cls-1" d="m558.79,568.27c-.13,0-.26-.07-.32-.2-.39-.78-1.88-3.38-4.98-4.27-1.72-.5-3.27-.27-4.26,0-.19.07-.38-.06-.44-.25-.05-.19.06-.39.25-.44,1.08-.3,2.77-.54,4.65,0,3.38.97,5,3.8,5.42,4.64.09.18.02.39-.16.48-.05.02-.11.04-.16.04Z"/>
      <path class="cls-1" d="m504.2,587.22c-.14,0-.28-.09-.33-.23-.07-.18.02-.39.21-.46,1.11-.42,2.24-.8,3.37-1.12.01,0,1.5-.44,3-.75,2.66-.55,5.19-.77,7.51-.75,3.51.07,7.06.83,10.53,2.26.18.07.27.28.19.46-.07.18-.28.27-.46.19-3.39-1.39-6.85-2.13-10.27-2.2-2.28-.03-4.74.19-7.32.73-1.5.32-2.96.74-2.98.74-1.11.32-2.23.69-3.32,1.11-.04.01-.08.02-.13.02Z"/>
      <path class="cls-1" d="m520.7,612.42c-1.99,0-4.23-.27-6.59-1.08-3.09-1.05-5.97-2.88-8.31-5.29-.14-.14-.13-.36,0-.5.14-.14.37-.13.5,0,2.27,2.33,5.04,4.1,8.03,5.11,5.97,2.03,11.2.55,13.16,0,3.78-1.07,7.33-3.1,10.25-5.86.14-.13.37-.13.5.01s.13.37-.01.5c-3.01,2.84-6.66,4.92-10.55,6.03-1.25.36-3.78,1.07-6.99,1.07Z"/>
      <path class="cls-1" d="m516.2,611.88c-.2,0-.36-.16-.36-.36v-14.95c0-.2.16-.36.36-.36s.36.16.36.36v14.95c0,.2-.16.36-.36.36Z"/>
      <path class="cls-1" d="m523.66,620.95c-1.58,0-3.08-.12-4.65-.31-2.09-.24-4.07-.49-5.95-.74-.19-.03-.33-.21-.31-.4.03-.19.22-.33.4-.31,1.87.25,3.85.5,5.94.74,2.87.34,5.46.46,8.83,0,1.25-.17,2.49-.42,3.67-.74.19-.04.39.06.43.25.05.19-.06.38-.25.44-1.21.32-2.47.58-3.76.75-1.58.22-3,.31-4.35.31Z"/>
      <path class="cls-1" d="m680.89,588.94c-.06,0-.11-.01-.16-.04-.17-.09-.24-.31-.15-.48,6.99-13.38,9.7-22.37,9.73-22.46,3.73-12.5,4.5-22.39,5.19-31.12,1.45-18.51.22-37.34-3.67-55.95-.04-.19.08-.38.28-.42.19-.05.38.08.42.27,3.9,18.68,5.13,37.57,3.68,56.15-.69,8.77-1.46,18.7-5.21,31.27-.03.09-2.76,9.13-9.78,22.58-.06.12-.19.19-.31.19Z"/>
      <path class="cls-1" d="m642.92,572.46s-.08,0-.13-.02c-.18-.07-.27-.28-.2-.46,2.25-5.88,2.68-10.96,3.13-16.34.4-4.72.4-9.58,0-14.05-.44-4.9-1.41-9.98-2.96-15.54-2.43-8.69-6.53-18.43-11.85-28.15-5.46-9.97-12.13-19.72-19.27-28.17-13.46-15.91-26.68-25.57-36.34-32.63-3.86-2.82-7.85-5.56-11.87-8.16-.17-.11-.21-.33-.11-.49.11-.17.33-.21.49-.11,4.03,2.61,8.03,5.36,11.9,8.18,9.69,7.08,22.95,16.77,36.46,32.74,7.18,8.49,13.87,18.27,19.36,28.29,5.35,9.77,9.47,19.55,11.92,28.3,1.57,5.59,2.54,10.72,2.98,15.66.4,4.51.4,9.41,0,14.17-.46,5.43-.89,10.56-3.18,16.54-.05.14-.19.23-.33.23Z"/>
      <path class="cls-1" d="m530.69,444.88c-2.11,0-4.07-.79-5.53-2.25-1.52-1.52-2.32-3.59-2.25-5.81.15-4.57,3.99-8.42,8.56-8.58,2.25-.04,4.29.72,5.81,2.24,1.52,1.52,2.33,3.59,2.25,5.81-.15,4.57-3.99,8.42-8.56,8.58-.1,0-.19,0-.29,0Zm1.08-15.93c-.09,0-.18,0-.27,0-4.21.14-7.74,3.68-7.87,7.89-.07,2.03.66,3.9,2.04,5.28s3.26,2.1,5.29,2.03c4.21-.15,7.74-3.68,7.87-7.89.07-2.03-.66-3.9-2.05-5.29-1.32-1.32-3.1-2.04-5.02-2.04Z"/>
      <path class="cls-1" d="m505.61,454.71c-.46,0-.92-.07-1.38-.2-.19-.06-.3-.26-.24-.44.06-.19.26-.29.44-.24.61.18,1.24.23,1.85.12,1.25-.21,2.07-.97,2.45-1.4.13-.15.35-.16.5-.04.15.13.16.36.03.5-.44.51-1.39,1.39-2.86,1.64-.26.04-.52.07-.79.07Z"/>
      <path class="cls-1" d="m512.87,455.22c-.49,0-.96-.07-1.43-.22-1.42-.45-2.24-1.46-2.61-2.02-.11-.16-.06-.39.1-.49s.38-.06.49.1c.31.48,1.02,1.35,2.23,1.73.59.19,1.21.24,1.84.14.2-.03.37.11.4.3.03.19-.1.37-.3.41-.25.04-.5.06-.74.06Z"/>
      <path class="cls-1" d="m409.11,295.29s-.1-.01-.14-.03c-.18-.08-.26-.29-.18-.47l2.97-6.68c.08-.18.29-.26.47-.18.18.08.26.29.18.47l-2.97,6.68c-.06.13-.19.21-.32.21Z"/>
      <path class="cls-1" d="m409.11,298.26c-.09,0-.18-.04-.25-.11-.14-.14-.14-.36,0-.5,1.49-1.48,4.01-3.46,7.58-4.54,1.95-.59,3.99-.85,6.06-.76.2,0,.35.17.34.37,0,.19-.16.35-.37.34-1.99-.08-3.95.16-5.83.73-3.43,1.04-5.85,2.95-7.28,4.37-.07.07-.16.1-.25.1Z"/>
      <path class="cls-1" d="m331.17,636.33c-.07,0-.14-.02-.2-.06-.16-.11-.2-.33-.09-.49l.14-.19c.65-.92,2.16-3.07,1.72-4.8-.65-2.54-3.79-3.62-5.87-4.33-2.1-.72-3.37-.76-6.16-.85-1.02-.03-2.23-.07-3.74-.15-.05,0-5.27-.29-10.7-1.02-3.34-.45-6.72-1.09-10.06-1.91-.19-.05-.31-.24-.26-.43.05-.19.24-.31.43-.26,3.31.81,6.67,1.45,9.98,1.9,5.4.73,10.59,1.01,10.65,1.01,1.51.08,2.71.12,3.72.15,2.77.09,4.17.13,6.37.89,2.22.76,5.58,1.91,6.33,4.82.53,2.05-1.12,4.39-1.83,5.39l-.13.19c-.07.1-.18.15-.29.15Z"/>
      <path class="cls-1" d="m332.02,634.53s-.1-.01-.15-.03c-2.86-1.3-5-1.87-6.35-1.69-.2.02-.37-.11-.4-.31-.02-.19.11-.37.31-.4,1.5-.2,3.71.37,6.74,1.75.18.08.26.29.18.47-.06.13-.19.21-.32.21Z"/>
      <path class="cls-1" d="m333.17,631.91s-.1-.01-.15-.03c-2.86-1.3-5.01-1.87-6.35-1.69-.2.03-.37-.11-.4-.31-.02-.19.11-.37.31-.4,1.51-.2,3.71.37,6.74,1.74.18.08.26.29.18.47-.06.13-.19.21-.32.21Z"/>
      <path class="cls-1" d="m321.78,453.61c-2.01,0-4.01-.45-5.63-1.26-2.12-1.06-3.33-2.66-3.33-4.4,0-2.67,2.83-4.93,6.89-5.5.64-.11,1.34-.16,2.07-.16,5.02,0,8.95,2.49,8.95,5.67s-4.02,5.66-8.95,5.66Zm0-10.62c-.69,0-1.35.05-1.96.16-3.71.52-6.29,2.49-6.29,4.8,0,1.46,1.07,2.84,2.94,3.77,1.53.76,3.41,1.18,5.31,1.18,4.55,0,8.24-2.22,8.24-4.95s-3.7-4.96-8.24-4.96Z"/>
      <path class="cls-1" d="m242.92,630.21c-1.28,0-2.5-.75-3.56-1.52-2.96-2.16-4.95-4.6-7.47-7.69-.86-1.06-1.79-2.2-2.85-3.45l-.14-.16c-.47-.56-1.12-1.32-2.07-2.18-.68-.62-1.32-1.1-2.14-1.72-1.36-1.03-3.22-2.44-6.48-5.4-3.88-3.5-7.3-6.64-10-9.7-3.23-3.65-5.2-6.98-6.38-10.81-1.41-4.55-1.39-8.81-1.37-9.61.1-4.41,1.17-7.65,1.38-8.25,2.84-8.59,9.59-13.43,12.36-15.11,3.79-2.33,7.07-3.15,10.87-4.09,2.48-.63,7.45-1.62,13.75-1.39,6.81.22,9.57,1.7,11.05,2.78,1.2.87,1.88,1.7,2.54,2.49l.23.28c6.73,7.99,18.48,14.49,22.82,14.8.55.04,2.42.26,4.24,1.41,1.23.77,1.43,1.34,1.5,1.53.51,1.73-1.55,3.64-2.85,4.5-.96.63-2.02,1.04-3.25,1.23-.89.16-1.7.18-2.38.18-2.32-.01-6.41-.31-15.02-2.73l-.17-.04c-1.85-.52-4.39-1.23-6.33,0-.4.23-.92.62-1.23,1.22h0c-1.21,2.27,1.47,6.05,2.62,7.67l.07.11c2.8,3.97,3.5,5.63,4.24,7.39.78,1.87,1.6,3.8,5.26,8.89,7.42,10.31,11.51,15.99,13.5,17.57.36.29,2.19,1.84,2.84,4.26.19.76.18,1.24-.03,1.62-.85,1.36-4,.9-5.87.16-2.1-.83-3.14-2.16-4.7-4.16-.62-.79-1.32-1.69-2.22-2.72-.79-.92-1.1-1.21-1.77-1.83-.64-.6-1.61-1.51-3.64-3.58-.03-.04-3.77-3.83-14.87-16.22-.59-.17-.83-.13-.88-.1-.02.04-.12.44,1.35,2.28,2.45,3.08,7.98,9.07,12.19,13.55,2.82,3.63,5.99,6.81,9.46,9.46.49.37.99.74,1.47,1.1,2.5,1.83,4.48,3.28,4.08,4.71-.32,1.13-2.06,1.55-3.03,1.61-2.04.12-3.49-1.06-5.54-2.7-6.85-5.48-10.35-8.89-12.38-10.98-4.27-4.34-6.19-6.12-7.22-7.07-1.13-1.05-1.46-1.36-2.31-2.46l-.12-.15c-1.27-1.68-1.85-2.22-2.1-2.39,0,.15.02.43.13.88.84,3.65,3.94,6.58,3.97,6.61,8.11,7.8,14.02,12.81,17.58,14.88,1.48.85,3.1,1.94,2.88,3.09-.22,1.08-1.98,1.49-3.01,1.64-2.4.33-4.84-.47-8.39-2.77-1.42-.92-3.34-2.28-6.83-5.46l-.83-.75c-3.39-3.09-5.84-5.33-8.71-8.79l-.6-.72c-.85-1.04-2.4-2.92-2.98-3.21,0,.13.02.39.13.92.7,3.44,2.05,5.52,2.06,5.54,1.29,1.95,2.65,3.65,5.4,6.75.71.8,1.4,1.52,2.01,2.15,1.92,2,3.18,3.31,2.73,4.74-.44,1.38-2.2,1.83-2.22,1.83-.27.07-.53.1-.79.1Zm-5.93-80.42c-5.35,0-9.53.84-11.66,1.38-3.83.95-7.06,1.75-10.76,4.03-2.71,1.64-9.29,6.37-12.06,14.74-.21.59-1.24,3.74-1.34,8.04-.02.79-.03,4.95,1.34,9.39,1.15,3.73,3.07,6.98,6.24,10.55,2.67,3.03,6.09,6.16,9.95,9.65,3.24,2.94,5.08,4.34,6.43,5.36.83.63,1.49,1.13,2.18,1.76.98.89,1.65,1.68,2.13,2.25l.14.16c1.07,1.25,2,2.4,2.86,3.46,2.48,3.05,4.45,5.46,7.34,7.57,1.19.87,2.47,1.63,3.77,1.3.02,0,1.4-.38,1.71-1.35.32-1.03-.83-2.22-2.57-4.04-.61-.64-1.3-1.36-2.03-2.17-2.77-3.13-4.15-4.85-5.46-6.82-.06-.09-1.45-2.2-2.17-5.79-.2-.95-.22-1.48.16-1.73.68-.41,1.72.72,3.94,3.42l.59.72c2.83,3.42,5.27,5.64,8.64,8.71l.83.75c3.45,3.14,5.34,4.49,6.74,5.39,3.44,2.23,5.66,2.99,7.9,2.66,1.35-.2,2.32-.63,2.41-1.08.06-.29-.19-.99-2.5-2.31-3.65-2.13-9.61-7.17-17.75-15.01-.13-.12-3.29-3.1-4.17-6.96-.25-1.02-.2-1.56.19-1.75.54-.29,1.28.34,3.04,2.66l.12.15c.81,1.06,1.1,1.33,2.18,2.33,1.09,1.01,3.01,2.79,7.3,7.14,2.02,2.08,5.5,5.47,12.32,10.92,2.18,1.74,3.41,2.65,5.05,2.54,1.03-.07,2.22-.48,2.39-1.1.27-.96-1.81-2.48-3.81-3.95-.49-.36-.99-.73-1.49-1.1-3.51-2.69-6.73-5.91-9.56-9.57-4.2-4.46-9.75-10.47-12.21-13.56-1.38-1.72-1.77-2.64-1.36-3.16.26-.36.83-.41,1.74-.12l.09.03.07.07c11.14,12.43,14.88,16.23,14.91,16.27,2.02,2.06,2.99,2.96,3.62,3.56.67.63,1,.94,1.82,1.89.91,1.05,1.61,1.96,2.24,2.76,1.55,1.98,2.48,3.17,4.41,3.93,2.1.83,4.53.9,5,.14.04-.08.16-.28-.04-1.08-.59-2.2-2.26-3.62-2.59-3.88-2.08-1.64-5.94-7.01-13.64-17.71-3.71-5.16-4.54-7.13-5.34-9.03-.72-1.72-1.41-3.35-4.16-7.25l-.07-.11c-1.22-1.72-4.08-5.76-2.67-8.41.39-.75,1.03-1.23,1.49-1.5,2.19-1.39,4.91-.64,6.89-.08l.17.05c8.54,2.39,12.55,2.69,14.83,2.7.64,0,1.42-.02,2.26-.17,1.13-.18,2.1-.55,2.97-1.13,1.23-.81,2.92-2.46,2.57-3.67-.12-.34-.53-.73-1.2-1.16-1.68-1.06-3.4-1.27-3.89-1.3-4.47-.32-16.49-6.93-23.33-15.06l-.24-.28c-.63-.76-1.29-1.55-2.42-2.37-1.41-1.03-4.04-2.43-10.66-2.64-.62-.02-1.23-.03-1.82-.03Zm12.68,26.82h0,0Z"/>
      <path class="cls-1" d="m635.16,639.9c-.32,0-.63-.06-.92-.2-1.07-.52-1.59-1.93-1.56-3.05.02-.3.06-1.17,1.43-2.92.75-.96,1.36-1.5,1.95-2.01.26-.23.52-.46.8-.73,1.23-1.22,1.81-2.35,2.37-3.45l.28-.54c1.96-3.71,6.67-10.38,10.11-15.24.56-.79,1.11-1.57,1.6-2.27-.05.05-.09.09-.13.12l-.16.16c-.55.54-2.07,2.8-4,5.66-4.39,6.49-11.02,16.29-16.36,21.49-1.09,1.05-2.52,2.31-3.93,2.76l-.07.02c-.67.21-1.26.22-1.81.02-.68-.25-1.28-.85-1.56-1.56-.63-1.64.64-3.38,1.4-4.42,1.24-1.71,2.64-2.69,2.8-2.79,1.85-1.25,3.04-3.06,4.68-5.56l.49-.75c1.16-1.76,2.47-3.68,4.26-5.84.46-.56,1.06-1.27,1.74-2.07,3.18-3.75,8.5-10.02,9.04-12.7.08-.37.11-.62.12-.78-.27.27-.65.8-.8,1-1.13,1.63-6.9,9.87-12.86,17.28-2.35,2.92-4.44,5.36-6.21,7.24-2.22,2.36-5.03,4.96-7.17,4.16-.43-.17-1.04-.56-1.52-1.49-.69-1.48-.24-3.37,1.36-5.82,1.59-2.46,5.37-7.08,9.36-11.97,1.85-2.27,3.74-4.59,5.48-6.76,2.66-3.34,6.27-7.97,6.83-9.69.46-1.41.02-2.45.01-2.46-.35-.77-.81-1.05-1.14-1.17-.35-.12-.71-.12-1.15,0-2.17.59-3.88,2.58-3.9,2.6-.41.36-.78.72-1.14,1.09-1.03,1.06-1.86,2.14-2.59,3.11-1.39,1.83-2.59,3.41-4.58,4.06-.48.16-1.75.56-2.98-.02-.88-.42-1.33-1.13-1.52-1.52-.38-.82-.38-1.79-.02-2.98.57-1.85,1.67-3.01,2.55-3.95l.24-.26c.52-.55.59-.67.78-.98.28-.46.8-1.32,3.27-4.43.42-.52.8-.99,1.14-1.42,1.59-1.96,2.57-3.07,3.37-3.97.79-.89,1.42-1.6,2.28-2.74,2.17-2.9,2.98-4.78,3.64-6.28.5-1.15.93-2.14,1.8-3.23,3.01-3.76,9.42-6.2,16.34-6.22h.1c7.56,0,14.13,2.76,18.04,7.58,5.26,6.48,4.2,14.8,4.15,15.2h0c-.42,3.27-1.43,4.72-6.27,11.69-.94,1.35-2.03,2.92-3.29,4.75-1.54,2.24-3.1,4.46-4.67,6.68-2.51,3.56-5.1,7.25-7.54,10.95-.03.04-2.88,4.37-9.55,10.91-2.1,2.06-3.67,3.32-4.51,2.76-.55-.36-.6-1.32-.17-3.04.37-1.35.95-2.2,1.42-2.88.36-.52.7-1.06,1.04-1.6.53-.83,1.07-1.69,1.69-2.49,2.8-3.65,4.74-7.98,5.38-9.41.82-1.82,1.46-3.57,1.92-4.96-1.45,3.02-2.72,5.07-5.18,9.05l-.35.57c-5.57,9.02-8.11,13.13-12.13,16.1-.98.72-2.31,1.59-3.52,1.59Zm18.24-33.46c.07,0,.15.03.23.11l.09.08.03.13c.05.28-.07.51-3.55,5.41-3.24,4.58-8.13,11.49-10.06,15.16l-.27.52c-.56,1.09-1.19,2.33-2.51,3.63-.28.28-.55.52-.83.76-.56.49-1.14,1.01-1.86,1.92-.82,1.05-1.25,1.9-1.28,2.51-.02.86.37,2,1.16,2.38.79.37,2.01-.06,3.7-1.32,3.91-2.89,6.43-6.97,11.95-15.9l.35-.57c2.5-4.05,3.76-6.08,5.23-9.18.18-.38.35-.75.51-1.09.77-1.66.85-1.83,1.17-1.83l.12.02.15.05.07.16c.23.54-1.24,5.1-2.73,8.41-.66,1.47-2.62,5.85-5.47,9.57-.59.77-1.13,1.62-1.65,2.44-.34.54-.69,1.09-1.05,1.61-.44.64-.98,1.43-1.31,2.61-.52,2.05-.15,2.32-.15,2.32.14.07.77.14,3.63-2.67,6.61-6.48,9.42-10.76,9.45-10.8,2.44-3.72,5.04-7.41,7.55-10.97,1.56-2.22,3.13-4.44,4.66-6.68,1.26-1.83,2.35-3.4,3.29-4.76,4.76-6.85,5.75-8.27,6.15-11.37h0c.05-.34,1.08-8.4-4-14.66-3.77-4.65-10.14-7.32-17.48-7.32h-.1c-6.71.02-12.91,2.36-15.79,5.96-.81,1.01-1.2,1.92-1.7,3.07-.67,1.54-1.5,3.45-3.72,6.43-.88,1.17-1.51,1.88-2.31,2.79-.79.89-1.77,2-3.34,3.94-.34.43-.72.91-1.14,1.43-2.44,3.07-2.95,3.91-3.22,4.35-.2.33-.3.49-.87,1.09l-.24.26c-.83.88-1.87,1.98-2.39,3.67-.46,1.51-.13,2.22-.02,2.46.12.24.48.84,1.19,1.19.98.46,2.01.13,2.45-.02,1.77-.58,2.86-2.01,4.23-3.81.74-.98,1.58-2.08,2.64-3.17.37-.39.76-.75,1.15-1.09.04-.05,1.83-2.14,4.21-2.79.58-.16,1.09-.16,1.57,0,.46.16,1.1.55,1.55,1.53.03.07.58,1.3.02,2.99-.46,1.41-2.61,4.46-6.95,9.91-1.73,2.18-3.63,4.5-5.48,6.77-3.98,4.88-7.74,9.48-9.32,11.91-1.45,2.23-1.89,3.89-1.33,5.08.4.75.85,1.05,1.16,1.18,1.96.74,5.18-2.69,6.4-3.98,1.76-1.87,3.83-4.29,6.17-7.2,5.95-7.39,11.7-15.61,12.8-17.19.78-1.07,1.3-1.73,1.8-1.47.37.15.43.66.19,1.75-.58,2.86-5.76,8.97-9.19,13.02-.67.79-1.27,1.5-1.73,2.06-1.76,2.13-3.07,4.04-4.21,5.78l-.49.75c-1.62,2.48-2.91,4.43-4.87,5.76-.15.1-1.46,1.02-2.62,2.63-.68.92-1.81,2.46-1.31,3.74.21.52.66.97,1.15,1.15.4.14.85.13,1.39-.04l.07-.02c1.25-.42,2.58-1.6,3.6-2.58,5.28-5.15,11.89-14.91,16.27-21.38,2.03-3,3.49-5.16,4.08-5.76l.17-.16c.22-.22.65-.64,1.19-1.19.52-.52.83-.85,1.03-1.05.25-.26.42-.43.59-.43Z"/>
    </g>
    <path class="cls-1" d="m449.47,665.76c-.18,0-.34-.14-.35-.32-.1-1.02-.1-2.06,0-3.07.18-1.86.7-3.67,1.54-5.37.09-.18.3-.25.48-.16.18.09.25.3.16.47-.8,1.63-1.29,3.35-1.47,5.13-.1.97-.1,1.96,0,2.93.02.2-.12.37-.32.39-.01,0-.02,0-.03,0Z"/>
    <path class="cls-1" d="m455.39,666.34c-.18,0-.34-.14-.35-.32-.1-1.02-.1-2.06,0-3.07.19-1.86.7-3.67,1.54-5.38.08-.18.3-.26.47-.16.18.09.25.3.16.47-.8,1.63-1.29,3.36-1.47,5.14-.1.97-.1,1.95,0,2.93.02.19-.12.37-.32.39-.01,0-.02,0-.03,0Z"/>
    <path class="cls-1" d="m455.85,648.12c-.19,0-.35-.16-.36-.35-.01-.82.09-2.07.69-3.37.62-1.35,1.48-2.14,2.09-2.56.16-.12.38-.07.49.09.11.16.07.38-.09.49-.54.37-1.3,1.07-1.85,2.27-.54,1.18-.64,2.31-.62,3.06,0,.19-.15.36-.35.36h0Z"/>
    <path class="cls-1" d="m460.71,649.41c-.19,0-.35-.16-.36-.35-.01-.82.09-2.07.69-3.37.62-1.36,1.48-2.14,2.09-2.56.16-.11.38-.07.49.09.11.16.07.38-.09.49-.44.3-1.27.99-1.85,2.26-.54,1.18-.64,2.31-.62,3.06,0,.19-.15.36-.35.36h0Z"/>
  </g>
  <path class="cls-1" d="m225.84,840.23c-2.53-.34-5.62-.76-7.5-3.35-1.92-2.63-1.86-6.53-.05-10.03-3.53,9.17-10.29,13.76-20.28,13.76-4.57,0-8.35-1.03-11.32-3.09-2.97-2.06-5.19-4.78-6.66-8.14-1.47-3.36-2.2-7.11-2.2-11.23,0-6.98,2.01-12.51,6.03-16.6,4.02-4.08,9.36-6.12,16.02-6.12,4.05,0,7.61.8,10.68,2.4,1.96,1.02,2.64,2.49,3.37,2.16,1.36-.61.99-6.02-1.61-9.73-1.14-1.64-2.38-2.46-2.7-2.67-1.56-1-3.44-1.5-5.63-1.5-1.57,0-3.25.32-5.05.95-1.8.63-3.64,1.26-5.54,1.89-1.89.63-3.82.95-5.78.95-2.61,0-4.65-.9-6.12-2.71-1.47-1.81-2.2-4.14-2.2-7,0-3.87,1.27-7.32,3.82-10.35,2.55-3.03,5.93-5.43,10.14-7.19,4.21-1.77,8.77-2.65,13.67-2.65,6.4,0,11.95,1.54,16.66,4.61,4.7,3.07,8,7.81,9.9,14.2,1.44,4.63,2.46,9.84,3.09,15.65.62,5.81.93,11.99.93,18.55,0,9.72-1.97,10.21-1.18,16.66.49,3.98,1.36,6.13-.05,8.14-2.48,3.54-9.21,2.62-10.44,2.46Zm-19.2-18.43c1.31,0,2.63-.27,3.97-.82,1.34-.55,2.46-1.35,3.38-2.4.91-1.05,1.37-2.33,1.37-3.85s-.36-2.73-1.08-3.66c-.72-.92-1.68-1.6-2.89-2.02-1.21-.42-2.5-.63-3.87-.63-2.48,0-4.48.68-5.98,2.02-1.5,1.35-2.25,3.03-2.25,5.05,0,1.85.67,3.37,2.01,4.54,1.34,1.18,3.12,1.77,5.34,1.77Z"/>
  <path class="cls-1" d="m342.34,840.23c-2.53-.34-5.62-.76-7.5-3.35-1.92-2.63-1.86-6.53-.05-10.03-3.53,9.17-10.29,13.76-20.28,13.76-4.57,0-8.35-1.03-11.32-3.09-2.97-2.06-5.19-4.78-6.66-8.14-1.47-3.36-2.2-7.11-2.2-11.23,0-6.98,2.01-12.51,6.03-16.6,4.02-4.08,9.36-6.12,16.02-6.12,4.05,0,7.61.8,10.68,2.4,1.96,1.02,2.64,2.49,3.37,2.16,1.36-.61.99-6.02-1.61-9.73-1.14-1.64-2.38-2.46-2.7-2.67-1.56-1-3.44-1.5-5.63-1.5-1.57,0-3.25.32-5.05.95-1.8.63-3.64,1.26-5.54,1.89-1.89.63-3.82.95-5.78.95-2.61,0-4.65-.9-6.12-2.71-1.47-1.81-2.2-4.14-2.2-7,0-3.87,1.27-7.32,3.82-10.35,2.55-3.03,5.93-5.43,10.14-7.19,4.21-1.77,8.77-2.65,13.67-2.65,6.4,0,11.95,1.54,16.66,4.61,4.7,3.07,8,7.81,9.9,14.2,1.44,4.63,2.46,9.84,3.09,15.65.62,5.81.93,11.99.93,18.55,0,9.72-1.97,10.21-1.18,16.66.49,3.98,1.36,6.13-.05,8.14-2.48,3.54-9.21,2.62-10.44,2.46Zm-19.2-18.43c1.31,0,2.63-.27,3.97-.82,1.34-.55,2.46-1.35,3.38-2.4.91-1.05,1.37-2.33,1.37-3.85s-.36-2.73-1.08-3.66c-.72-.92-1.68-1.6-2.89-2.02-1.21-.42-2.5-.63-3.87-.63-2.48,0-4.48.68-5.98,2.02-1.5,1.35-2.25,3.03-2.25,5.05,0,1.85.67,3.37,2.01,4.54,1.34,1.18,3.12,1.77,5.34,1.77Z"/>
  <path class="cls-1" d="m253.77,734.39c-.35-3.53-.76-8.54-.95-14.58-.35-10.5.32-12.47,1.73-13.83,1.96-1.89,5.69-1.8,13.14-1.63,5.49.13,8.27.22,9.59,1.63,2.38,2.53.71,6.55,0,14.21-.58,6.25-.2,11.44.23,14.91.49.58,1.35,1.46,2.62,2.14,4.19,2.24,7.72-.48,14.21,0,3.26.24,7.08.41,8.52,2.84.9,1.52.17,2.68,0,8.52-.14,4.95.37,4.84,0,5.68-2.64,6.07-22.7-1.79-28.41,5.68-1.59,2.08-.43,3.21,0,17.05v39.78c-.53,2.71-.95,6.74,0,11.37,1.31,6.39,4.26,9.07,2.84,11.37-1.31,2.11-5.11,1.67-10.68,1.77-6.6.12-9.89-.32-12.05-1.77-2.45-1.66-5.03-5.53-2.84-31.26,1.06-12.42,2.84-28.41,2.84-28.41,1.66-14.84,2.11-17.46,0-19.89-6.54-7.52-26.43-.25-28.41-5.68-.18-.5.05-.39,0-5.68-.04-4.96-.24-4.99,0-5.68,1.35-3.9,8.6-5.86,14.21-5.68,4.94.15,8.45,2.16,11.37,0,1.17-.87,1.76-2.05,2.07-2.84Z"/>
  <path class="cls-1" d="m435.84,840.61c-10.33,0-17.92-3.19-22.77-9.56-4.85-6.38-7.27-15.23-7.27-26.57,0-8.77,1.44-16.54,4.33-23.31s7.06-12.09,12.51-15.94c5.45-3.85,11.99-5.78,19.62-5.78,6.98,0,12.33,1.68,16.03,5.05,3.7,3.36,5.56,8.06,5.56,14.08,0,4.25-1.12,7.59-3.37,10.03-2.24,2.43-5.47,3.65-9.67,3.65-1.64,0-3.21-.06-4.7-.2-1.5-.14-2.89-.24-4.17-.33-1.28-.09-2.49-.13-3.63-.13-2.64,0-4.65.71-6.04,2.12-1.39,1.42-2.08,3.54-2.08,6.37,0,2.57.71,4.47,2.14,5.71,1.42,1.24,3.35,1.86,5.77,1.86,1.07,0,2.3-.15,3.69-.46,1.39-.31,2.87-.6,4.44-.86,1.57-.26,3.1-.4,4.6-.4,3.28,0,5.99,1.13,8.12,3.39,2.14,2.26,3.21,5.56,3.21,9.9s-.96,8.13-2.89,11.36c-1.92,3.23-4.83,5.71-8.71,7.44-3.89,1.73-8.78,2.59-14.7,2.59Z"/>
  <path class="cls-1" d="m521.83,835.83c-11.66,8.57-30.64,6.31-39.95-2.56-3.74-3.57-5.91-7.99-6.73-10.18-1.45-3.92-2.6-9.17-3.47-15.75-.86-6.58-1.29-13.41-1.29-20.5,0-3.25.12-6.23.36-8.94.24-2.71.6-4.98,1.09-6.81.83-3.17,2.23-5.5,4.19-7,1.97-1.5,4.33-2.25,7.09-2.25,3.24,0,5.81,1.27,7.71,3.81,1.9,2.54,3.02,6.06,3.36,10.56.21,2.5.38,5.35.52,8.56.3,6.81-.21,7.29.41,9.44.92,3.2,3.55,8.24,6.62,8.12,2.87-.11,5.18-4.7,5.68-8.04.09-.57.05-1.74-.04-4.08-.13-3.63-.32-5.46-.47-8.31-.14-2.71-.21-4.94-.21-6.69,0-5.67.91-9.71,2.74-12.12,1.83-2.42,4.4-3.63,7.71-3.63,2.69,0,5,.69,6.94,2.06,1.93,1.38,3.35,3.36,4.24,5.94.97,2.42,1.79,5.71,2.48,9.87.69,4.17,1.24,8.85,1.66,14.06.41,5.21.62,10.73.62,16.56,0,6.75-.26,10.12-1.36,13.54-.52,1.64-2.95,9.21-9.92,14.34Z"/>
  <path class="cls-1" d="m728.38,775.67c-2.07-5.93-4.92-10.36-8.5-13.31-1.79-1.45-3.69-2.53-5.74-3.28-2.61-.95-4.75-1.03-6.68-1.11-4.8-.22-8.35.78-9.66,1.17-2.59.81-4.15,1.28-5.68,2.78-2.3,2.26-2.76,5.07-2.84,5.57-.17,1.14-.09,2.12,0,2.78-.97-4.06-2.61-6.9-3.75-8.52-2.19-3.15-3.86-3.9-4.72-4.18-.8-.31-1.65-.45-2.59-.45-2.47,0-4.57.83-6.31,2.48-1.73,1.67-2.93,4.18-3.58,7.6-.57,3.56-1.08,8.24-1.48,13.97-.4,5.76-.6,11.89-.6,18.4s.11,13.33.37,20.13c.26,6.82.63,13.14,1.05,18.96.45,5.85.88,10.63,1.31,14.42.74,5.32,2.13,9.52,4.12,12.61,2.02,3.09,4.94,4.62,8.75,4.62,4.09,0,7.1-1.64,9.01-4.9,1.9-3.26,2.87-7.24,2.87-11.91,0-3.79-.23-8.16-.63-13.17-.26-3.17-.54-6.37-.88-9.6,1.05,1.95,2.36,3.7,3.98,5.26,2.81,2.76,6.68,4.12,11.56,4.12,7.27,0,13.04-3.42,17.3-10.27,4.29-6.82,6.45-17.48,6.45-31.9,0-8.91-1.05-16.34-3.15-22.27Zm-22.85,35.77c-1.36,3.15-3.64,4.7-6.85,4.7-2.64,0-4.77-1.39-6.39-4.15-1.59-2.76-2.42-6.93-2.42-12.56s.82-9.83,2.47-13.22,3.84-5.09,6.54-5.09c2.36,0,4.38,1.48,6.11,4.4,1.7,2.95,2.59,7.54,2.59,13.78,0,4.98-.68,9.02-2.05,12.14Z"/>
  <path class="cls-1" d="m771.52,840.61c-9.01,0-16.19-1.41-21.53-4.23-5.35-2.82-9.21-6.87-11.59-12.17-2.38-5.3-3.57-11.62-3.57-18.97,0-9.31,1.66-17.23,5-23.77,3.33-6.54,7.91-11.55,13.73-15.06,5.82-3.5,12.43-5.25,19.83-5.25,8.79,0,15.24,2.03,19.34,6.09,4.1,4.06,6.15,9.37,6.15,15.95,0,5.21-1.23,9.74-3.68,13.58-2.46,3.85-5.86,6.79-10.22,8.84-4.36,2.05-9.39,3.07-15.11,3.07-2.64,0-5.2-.21-7.69-.64-2.49-.43-4.72-.98-6.7-1.67l2.64-7.18c-.22,2.05-.33,4.1-.33,6.15,0,3.68,1.15,6.28,3.46,7.82,2.31,1.54,5.51,2.3,9.61,2.3s7.32-.49,10.11-1.47c2.78-.98,5.24-1.96,7.36-2.95,2.12-.98,4.14-1.48,6.04-1.48,1.32,0,2.67.39,4.07,1.15,1.39.77,2.56,1.97,3.52,3.59.95,1.62,1.43,3.8,1.43,6.54,0,3.76-1.21,7.13-3.63,10.12-2.42,2.99-5.99,5.34-10.71,7.05-4.72,1.71-10.57,2.56-17.53,2.56Zm-6.37-44.72c3.52,0,6.56-1,9.12-3.01,2.56-2,3.84-4.46,3.84-7.37,0-1.88-.59-3.42-1.76-4.61-1.17-1.19-2.78-1.79-4.83-1.79-2.27,0-4.41.51-6.43,1.54-2.02,1.02-3.64,2.35-4.89,3.97-1.25,1.62-1.87,3.42-1.87,5.38s.6,3.33,1.81,4.36c1.21,1.03,2.87,1.54,5,1.54Z"/>
  <path class="cls-1" d="m806.13,822.26c0-4.04,1.15-7.97,3.46-11.8,2.31-3.82,6.08-7.78,11.32-11.86,5.24-4.08,12.18-8.49,20.82-13.22v-.51c-9.56-.98-16.8-.16-21.74.81-4.06.79-7.84,1.94-10.62.03-3-2.06-3.13-6.5-3.13-8.45,0-3.1.79-5.78,2.36-8.06,1.57-2.28,3.72-3.98,6.43-5.09,2.12-1.03,4.67-1.89,7.64-2.58,2.97-.69,6.11-1.2,9.45-1.55,3.33-.34,6.57-.51,9.72-.51,5.57,0,10.2.45,13.9,1.35,3.7.9,6.46,2.64,8.3,5.22,1.83,2.58,2.75,6.36,2.75,11.35,0,2.58-.57,5.16-1.7,7.74-1.14,2.58-3.17,5.33-6.1,8.25-2.93,2.92-7.03,6.19-12.31,9.8-5.27,3.61-12.05,7.74-20.33,12.38v.51c7.04,1.11,12.67,1.07,16.38.85,10.4-.61,16.05-3.18,19.89,0,1.81,1.5,3.1,4.18,3.29,6.76.16,2.16-.49,3.81-.87,4.78-1.13,2.94-3.37,5.51-6.72,7.73-5.05,3.35-12.45,5.03-22.19,5.03s-17.73-1.68-22.63-5.03c-4.91-3.35-7.36-7.99-7.36-13.93Z"/>
  <path class="cls-1" d="m886.67,760.82c3.59,0,6.39,2.9,8.4,8.71,2.01,5.81,3.02,15.04,3.02,27.72,0,15.58-1.26,26.8-3.79,33.67-2.53,6.87-6.36,10.3-11.48,10.3-4.03,0-6.98-2.54-8.84-7.62-1.87-5.08-2.8-13.95-2.8-26.63,0-15.58,1.43-27.16,4.29-34.75,2.86-7.59,6.59-11.39,11.21-11.39Zm-1.21-32.36c4.54,0,7.78,1.41,9.72,4.21,1.94,2.81,2.91,6.05,2.91,9.72,0,4.45-1.21,7.91-3.63,10.37-2.42,2.47-5.79,3.7-10.11,3.7s-7.42-1.36-9.5-4.07c-2.09-2.7-3.13-5.9-3.13-9.58,0-4.74,1.26-8.32,3.79-10.74,2.53-2.41,5.84-3.63,9.94-3.63Z"/>
  <path class="cls-1" d="m157.89,701.83c14.15.05,15.93-.25,18.41,1.59,5.93,4.39,5.81,13.53,5.77,16.62-.02,1.83-.26,12.91-8.04,18.85-5.26,4.02-13.1,4.03-28.78,4.04h-6.32c-.31.24-3.16,2.45-3.16,6.32,0,.39.06,4,3.16,6.32,9.86-.21,18.39-.15,25.29,0,6.58.14,10.28.33,12.64,3.16,2.79,3.34,2.84,9.32,0,12.64-2.22,2.59-5.66,2.96-9.48,3.16-19.37,1.03-24.15-3.29-28.45,0-2.78,2.12-2.9,10.9-3.16,28.45-.13,8.91-.17,13.36,0,15.8.87,12.56,2.56,15.79,0,18.97-2.7,3.35-7.7,3.62-9.69,3.73-1.41.08-6.08,0-10.62-3.01-3.04-2.01-5.21-5.21-6.52-9.62-1.32-3.89-2.3-9.78-2.96-17.68-.66-7.9-.99-18.46-.99-31.68,0-27.26,1.95-19.52,2.43-42.26.16-7.52.18-17.29,6.22-25.92,2.8-4.01,5.55-5.83,6.32-6.32,3.57-2.27,7.03-2.87,18.97-3.16,7.4-.18,9.26-.03,18.97,0Z"/>
  <path class="cls-1" d="m659.02,807.22c.37,4.84.03,7.53-.63,9.88-1.09,3.89-2.53,4.97-3.2,5.37-1.69,1.03-3.52.92-4.44.79,0,2.59-.05,5.85-.16,9.79.11,8.22-.28,12.56-1.18,13-1.69,1.02-6.71,1.58-15.03,1.69-9.45.22-14.69-.23-15.7-1.36-1.24-.9-1.63-4.21-1.18-9.96.22-4.62.34-8.67.34-12.16-18.35.34-29.33.23-32.93-.34-1.58-.56-2.93-5.35-4.06-14.36-.9-7.88-1.29-12.84-1.18-14.86.9-2.13,5.3-9.85,13.17-23.13,4.73-8.11,11.42-19.48,20.09-34.11,2.36-3.94,3.66-6.14,3.88-6.59.79-1.24,4.06-2.02,9.79-2.36,5.41-.23,10.58.05,15.54.84,5.52.9,8.27,2.14,8.27,3.71.57,16.56.79,36.48.68,59.78,1.1.02,2.67.23,4.1,1.2,2.99,2.03,3.29,6.03,3.83,13.16Zm-35.09-13.16v-36.94c-5.68,12.31-11.37,24.63-17.05,36.94h17.05Z"/>
</svg>